<?xml version="1.0" encoding="UTF-8" standalone="no"?>
<!-- Created with Inkscape (http://www.inkscape.org/) -->

<svg
   width="32.732151mm"
   height="40.943657mm"
   viewBox="0 0 32.732151 40.943657"
   version="1.1"
   id="svg5"
   xml:space="preserve"
   sodipodi:docname="LionCrossMane.svg"
   inkscape:version="1.2.2 (732a01da63, 2022-12-09)"
   inkscape:export-filename="Lion Cross Mane Scarlet 512.png"
   inkscape:export-xdpi="216.74667"
   inkscape:export-ydpi="216.74667"
   xmlns:inkscape="http://www.inkscape.org/namespaces/inkscape"
   xmlns:sodipodi="http://sodipodi.sourceforge.net/DTD/sodipodi-0.dtd"
   xmlns="http://www.w3.org/2000/svg"
   xmlns:svg="http://www.w3.org/2000/svg"><sodipodi:namedview
     id="namedview7"
     pagecolor="#000000"
     bordercolor="#000000"
     borderopacity="0.25"
     inkscape:showpageshadow="2"
     inkscape:pageopacity="0"
     inkscape:pagecheckerboard="true"
     inkscape:deskcolor="#d1d1d1"
     inkscape:document-units="mm"
     showgrid="false"
     inkscape:zoom="2.8284271"
     inkscape:cx="98.641397"
     inkscape:cy="79.19596"
     inkscape:window-width="1920"
     inkscape:window-height="974"
     inkscape:window-x="-11"
     inkscape:window-y="-11"
     inkscape:window-maximized="1"
     inkscape:current-layer="layer1"><sodipodi:guide
       position="-13.713848,49.549731"
       orientation="0,226.77165"
       id="guide7099"
       inkscape:locked="false" /><sodipodi:guide
       position="46.286152,49.549731"
       orientation="226.77165,0"
       id="guide7101"
       inkscape:locked="false" /><sodipodi:guide
       position="46.286152,-10.450268"
       orientation="0,-226.77165"
       id="guide7103"
       inkscape:locked="false" /><sodipodi:guide
       position="-13.713848,-10.450268"
       orientation="-226.77165,0"
       id="guide7105"
       inkscape:locked="false" /></sodipodi:namedview><defs
     id="defs2" /><g
     inkscape:label="Layer 1"
     inkscape:groupmode="layer"
     id="layer1"
     transform="translate(-105.39326,-70.658991)"><path
       style="fill:#ffffff;fill-opacity:1;stroke-width:0.264583"
       d="m 105.77261,84.096014 c -0.16626,0.11961 -0.35832,0.659465 -0.37728,0.911613 -0.0226,0.300776 0.14658,0.711373 0.19085,0.788657 -0.015,0.03459 -0.0117,0.02097 -0.008,0.02791 0.006,0.01257 0.002,0.02877 0.008,0.04134 0.003,0.0055 0.004,0.01218 0.008,0.01654 0.002,0.002 0.007,-0.0025 0.008,0 0.006,0.01167 0.003,0.06604 0.008,0.08268 0.004,0.0126 0.0128,0.02646 0.0165,0.04134 0.003,0.01069 -0.003,0.02261 0,0.03307 0.004,0.01169 0.0131,0.02122 0.0165,0.03307 0.004,0.01325 -0.004,0.02827 0,0.04134 0.001,0.0037 0.007,0.0046 0.008,0.0083 0.007,0.01984 -0.007,0.0463 0,0.06615 0.005,0.01429 0.0105,0.03749 0.0165,0.04961 0.004,0.0082 0.0137,0.01624 0.0165,0.02481 0.004,0.01197 0.002,0.02963 0.008,0.04134 0.002,0.0035 0.007,0.0046 0.008,0.0083 5.6e-4,0.0017 -0.003,0.03032 0,0.03307 0.002,0.002 0.006,-0.002 0.008,0 0.009,0.0086 0.0123,0.05336 0.0165,0.06615 0.004,0.0122 0.0131,0.02267 0.0165,0.03307 0.003,0.01046 -0.003,0.02261 0,0.03307 0.001,0.0037 0.007,0.0048 0.008,0.0083 0.003,0.006 0.007,0.06456 0.008,0.07441 0.005,0.03048 0.0199,0.06168 0.0248,0.09095 0.002,0.01087 -0.002,0.0222 0,0.03307 10e-4,0.0061 0.006,0.01103 0.008,0.01654 0.003,0.01103 0.007,0.02182 0.008,0.03307 0.002,0.01637 -0.004,0.03357 0,0.04961 0.003,0.01045 0.0209,0.03781 0.0248,0.04961 0.0128,0.03833 0.0145,0.08698 0.0331,0.124023 0.003,0.0055 0.004,0.01218 0.008,0.01654 0.002,0.002 0.007,-0.0025 0.008,0 0.002,0.0049 -0.002,0.01131 0,0.01654 10e-4,0.0037 0.006,0.0055 0.008,0.0083 0.003,0.0055 0.007,0.01056 0.008,0.01654 0.009,0.03784 -0.0167,-0.0086 0.008,0.04134 0.003,0.007 0.0122,0.01005 0.0165,0.01654 0.007,0.01105 0.0212,0.03879 0.0248,0.04961 -0.0145,0.07806 0.13632,0.788111 0.12278,0.57972 0.0877,0.06951 0.32087,0.471283 0.36833,0.598434 0.0414,0.110941 0.0512,0.517603 0.0526,0.536966 0.004,0.01199 0.20591,-0.02651 0.21481,-0.01763 0.004,0.0044 0.0138,0.0028 0.0165,0.0083 0.004,0.0074 -0.004,0.01741 0,0.02479 0.003,0.0055 -0.0482,0.07675 -0.0434,0.08065 0.10814,0.150806 0.25844,0.21244 0.41306,0.30586 0.007,0.0039 0.01,0.01267 0.0165,0.01654 0.0236,0.01347 0.0489,0.02379 0.0744,0.03307 0.0189,0.0069 0.0396,0.0084 0.0579,0.01654 0.007,0.0032 0.01,0.01304 0.0165,0.01654 0.0102,0.0051 0.0224,0.0043 0.0331,0.0083 0.13733,0.0515 -0.0541,-0.0149 0.0579,0.03307 0.0258,0.01106 0.0569,0.01376 0.0827,0.02479 0.0277,0.01185 0.0544,0.02921 0.0827,0.04134 0.0325,0.01392 0.0276,0.0034 0.0662,0.02479 0.012,0.0067 0.0207,0.01865 0.0331,0.02479 0.0156,0.0078 0.0337,0.0093 0.0496,0.01654 0.0382,0.01738 0.0707,0.04775 0.10749,0.06615 0.0402,0.02008 0.049,0.009 0.0827,0.03307 0.01,0.0068 0.0153,0.01802 0.0248,0.02479 0.01,0.0072 0.0228,0.0097 0.0331,0.01654 0.0368,0.02455 0.071,0.05712 0.10749,0.08268 0.0315,0.02204 0.0672,0.0365 0.0992,0.05788 0.0112,0.0075 0.0431,0.03395 0.0579,0.04134 0.008,0.0039 0.018,0.0028 0.0248,0.0083 0.008,0.0062 0.008,0.01929 0.0165,0.02479 0.009,0.0063 0.0229,0.0032 0.0331,0.0083 0.007,0.0035 0.01,0.01251 0.0165,0.01654 0.007,0.0045 0.0173,0.0038 0.0248,0.0083 0.007,0.004 0.01,0.01251 0.0165,0.01654 0.007,0.0045 0.017,0.0044 0.0248,0.0083 0.0412,0.02058 0.0333,0.02167 0.0661,0.04134 0.0361,0.02167 -0.006,-0.0071 0.0414,0.01654 0.0144,0.0072 0.0283,0.01545 0.0413,0.02479 0.006,0.0045 0.009,0.01365 0.0165,0.01654 0.008,0.0031 0.0171,-0.0031 0.0248,0 0.007,0.0029 0.01,0.01304 0.0165,0.01654 0.0816,0.0204 -0.003,-0.0068 0.0496,0.02479 0.0218,0.01307 0.0517,0.01344 0.0744,0.02479 0.009,0.0044 0.0159,0.01209 0.0248,0.01654 0.0136,0.0068 0.0355,0.0036 0.0496,0.0083 0.0242,0.0081 0.0399,0.0326 0.0661,0.04134 0.0164,0.0055 0.0561,0.0032 0.0661,0.0083 0.0579,0.02893 0.26773,0.01876 0.33073,0.0083 0.0302,-0.005 0.0565,-0.03649 0.0827,-0.04961 0.035,-0.01752 0.0726,-0.03217 0.10749,-0.04961 0.0256,-0.01281 0.0317,-0.02635 0.0579,-0.04134 0.0284,-0.01624 0.0257,-5.29e-4 0.0579,-0.01654 0.007,-0.0035 0.011,-0.01103 0.0165,-0.01654 0.0221,-0.0055 0.0448,-0.0088 0.0661,-0.01654 0.0254,-0.0092 0.0433,-0.0398 0.0661,-0.04961 0.0129,-0.0055 0.0282,-0.0033 0.0414,-0.0083 0.0309,-0.01159 0.022,-0.02296 0.0496,-0.04134 0.007,-0.0048 0.0175,-0.0034 0.0248,-0.0083 0.0273,-0.01818 0.0429,-0.04625 0.0661,-0.06615 0.009,-0.008 0.0243,-0.0078 0.0331,-0.01654 0.009,-0.0087 0.009,-0.0236 0.0165,-0.03307 0.006,-0.0076 0.0183,-0.009 0.0248,-0.01654 0.0172,-0.02008 0.0241,-0.04605 0.0413,-0.06615 0.0152,-0.01775 0.0366,-0.03015 0.0496,-0.04961 0.0166,-0.02495 0.0284,-0.0485 0.0413,-0.07441 0.0271,-0.0541 0.005,0.0052 0.0413,-0.04961 0.0279,-0.04189 0.0763,-0.138978 0.0909,-0.190169 0.003,-0.01061 -0.003,-0.02238 0,-0.03307 0.003,-0.01196 0.0136,-0.02111 0.0165,-0.03307 0.008,-0.03394 0,-0.08077 0,-0.115755 0,-0.02286 0.005,-0.05253 0,-0.07441 -0.0108,-0.0431 -0.0271,-0.08887 -0.0579,-0.124024 -0.007,-0.0075 -0.0178,-0.0095 -0.0248,-0.01654 -0.0154,-0.0154 -0.0356,-0.04033 -0.0496,-0.05788 -0.006,-0.0078 -0.009,-0.0186 -0.0165,-0.02479 -0.007,-0.0055 -0.017,-0.0044 -0.0248,-0.0083 -0.0294,-0.01471 -0.0541,-0.04072 -0.0827,-0.05788 -0.0151,-0.0091 -0.025,-0.02652 -0.0413,-0.03307 -0.008,-0.0031 -0.0172,0.0033 -0.0248,0 -0.0253,-0.01085 -0.0406,-0.03937 -0.0661,-0.04961 -0.0156,-0.0062 -0.0339,-0.0026 -0.0496,-0.0083 -0.0388,-0.0141 -0.0721,-0.04648 -0.10748,-0.06615 -0.026,-0.01442 -0.0566,-0.01887 -0.0827,-0.03307 -0.0174,-0.0095 -0.0318,-0.02418 -0.0496,-0.03307 -0.0156,-0.0078 -0.0338,-0.0092 -0.0496,-0.01654 -0.0362,-0.01349 -0.0646,-0.04157 -0.0992,-0.05788 -0.0324,-0.01526 -0.0668,-0.02608 -0.0992,-0.04134 -0.0145,-0.0068 -0.0267,-0.01816 -0.0413,-0.02481 -0.0159,-0.0072 -0.0337,-0.0093 -0.0496,-0.01654 -0.0146,-0.0066 -0.0265,-0.01862 -0.0413,-0.0248 -0.0185,-0.0077 -0.0399,-0.0076 -0.0579,-0.01654 -0.0158,-0.0079 -0.0256,-0.02518 -0.0413,-0.03307 -0.0179,-0.009 -0.0394,-0.0086 -0.0579,-0.01654 -0.0798,-0.03421 -0.15167,-0.09285 -0.22324,-0.14056 -0.0267,-0.01783 -0.0573,-0.02988 -0.0827,-0.04961 -0.0123,-0.0096 -0.0201,-0.02442 -0.0331,-0.03307 -0.0123,-0.0082 -0.0286,-0.0089 -0.0413,-0.01654 -0.0151,-0.0091 -0.0267,-0.02328 -0.0413,-0.03307 -0.0102,-0.0068 -0.0233,-0.009 -0.0331,-0.01654 -0.0569,-0.04424 -0.0217,-0.03449 -0.0744,-0.06615 -0.0159,-0.0095 -0.0346,-0.01393 -0.0496,-0.0248 -0.0158,-0.01146 -0.0249,-0.03088 -0.0413,-0.04134 -0.0147,-0.0094 -0.0349,-0.0072 -0.0496,-0.01654 -0.0164,-0.01046 -0.026,-0.02938 -0.0413,-0.04134 -0.01,-0.0076 -0.0228,-0.0097 -0.0331,-0.01654 -0.0266,-0.0177 -0.0479,-0.04018 -0.0744,-0.05788 -0.0598,-0.03985 -0.12228,-0.07601 -0.18191,-0.115755 -0.0454,-0.03027 -0.0859,-0.07023 -0.13229,-0.09922 -0.0105,-0.0065 -0.0232,-0.0091 -0.0331,-0.01654 -0.0125,-0.0094 -0.0199,-0.02481 -0.0331,-0.03307 -0.01,-0.006 -0.0236,-0.002 -0.0331,-0.0083 -0.008,-0.0055 -0.009,-0.01844 -0.0165,-0.0248 -0.009,-0.0079 -0.023,-0.0094 -0.0331,-0.01654 -0.0325,-0.02318 -0.0611,-0.05659 -0.0909,-0.08268 -0.0149,-0.01309 -0.0356,-0.01902 -0.0496,-0.03307 -0.007,-0.007 -0.0103,-0.01704 -0.0165,-0.02481 -0.026,-0.03255 -0.0602,-0.05489 -0.0827,-0.09095 -0.007,-0.01045 -0.009,-0.02371 -0.0165,-0.03307 -0.009,-0.01046 -0.024,-0.01443 -0.0331,-0.02481 -0.0146,-0.01673 -0.0486,-0.06784 -0.0579,-0.09095 -0.007,-0.01639 -0.005,-0.0326 -0.0165,-0.04961 -0.0727,-0.109108 -0.0992,-0.224109 -0.0992,-0.355534 0,-0.06474 -0.007,-0.135846 0.008,-0.198437 0.006,-0.02278 0.0292,-0.03133 0.0413,-0.04961 0.005,-0.0073 0.004,-0.01733 0.008,-0.02481 0.008,-0.0139 0.042,-0.03375 0.0496,-0.04134 0.007,-0.007 0.01,-0.01778 0.0165,-0.02481 0.0327,-0.03271 0.0782,-0.05764 0.11575,-0.08268 0.0376,-0.02508 0.0694,-0.05841 0.10749,-0.08268 0.0351,-0.02232 0.0548,-0.02526 0.0909,-0.04134 0.0319,-0.01416 0.0583,-0.03736 0.091,-0.04961 0.0106,-0.004 0.0231,-0.0027 0.0331,-0.0083 0.0154,-0.0086 0.0262,-0.02399 0.0413,-0.03307 0.0127,-0.0076 0.0281,-0.0099 0.0413,-0.01654 0.0287,-0.01437 0.0539,-0.03524 0.0827,-0.04961 0.0559,-0.02797 0.12402,-0.04482 0.1819,-0.06615 0.0779,-0.02871 0.15353,-0.06222 0.23151,-0.09095 0.0352,-0.01296 0.073,-0.01831 0.10749,-0.03307 0.0204,-0.0088 0.0377,-0.02376 0.0579,-0.03307 0.10034,-0.04631 0.002,0.01129 0.0909,-0.03307 0.24775,-0.123872 -0.11807,0.04663 0.10749,-0.06615 0.0156,-0.0078 0.0343,-0.0083 0.0496,-0.01654 0.0209,-0.01124 0.0374,-0.0294 0.0579,-0.04134 0.0128,-0.0075 0.0286,-0.0089 0.0413,-0.01654 0.0151,-0.0091 0.0262,-0.02399 0.0413,-0.03307 0.0127,-0.0076 0.029,-0.0083 0.0413,-0.01654 0.0211,-0.01409 0.038,-0.03374 0.0579,-0.04961 0.0651,-0.05208 -0.0213,0.02351 0.0579,-0.03307 0.0313,-0.02238 0.0596,-0.05203 0.0909,-0.07441 0.01,-0.0072 0.0228,-0.0097 0.0331,-0.01654 0.0162,-0.01081 0.0261,-0.02917 0.0413,-0.04134 0.0312,-0.02492 0.0706,-0.04582 0.0992,-0.07441 0.004,-0.0044 0.003,-0.01284 0.008,-0.01654 0.007,-0.0052 0.0173,-0.0038 0.0248,-0.0083 0.0134,-0.008 0.022,-0.02205 0.0331,-0.03307 0.0286,-0.02863 0.0601,-0.05714 0.0827,-0.09095 0.005,-0.0073 0.003,-0.01755 0.008,-0.0248 0.0119,-0.01791 0.0303,-0.03115 0.0413,-0.04961 0.006,-0.0097 0.003,-0.02291 0.008,-0.03307 0.009,-0.01778 0.0228,-0.03257 0.0331,-0.04961 0.0254,-0.04227 0.0412,-0.09063 0.0661,-0.132292 0.0173,-0.02888 0.0404,-0.05358 0.0579,-0.08268 0.003,-0.0053 0.006,-0.01102 0.008,-0.01654 0.003,-0.0083 0.004,-0.01733 0.008,-0.02481 0.004,-0.0067 0.013,-0.0096 0.0165,-0.01654 0.002,-0.0049 -0.001,-0.01119 0,-0.01654 0.004,-0.0143 0.0166,-0.03732 0.0248,-0.04961 0.0156,-0.02341 0.005,0.01567 0.0248,-0.03307 0.005,-0.0117 0.006,-0.07981 0,-0.09095 -0.0179,-0.0358 -0.0648,-0.03998 -0.091,-0.06615 -0.002,-0.002 0.002,-0.0063 0,-0.0083 -0.004,-0.0041 -0.0442,-0.0069 -0.0496,-0.0083 -0.004,-9.53e-4 -0.005,-0.0068 -0.008,-0.0083 -0.0106,-0.0042 -0.0225,-0.004 -0.0331,-0.0083 -0.0173,-0.0069 -0.0288,-0.0196 -0.0496,-0.02481 -0.0279,-0.007 -0.076,-5.29e-4 -0.0992,-0.0083 -0.004,-0.0012 -0.005,-0.007 -0.008,-0.0083 -0.0171,-0.0057 -0.0402,-0.0039 -0.0579,-0.0083 -0.0207,-0.0052 -0.0358,-0.02112 -0.0579,-0.02481 -0.0472,-0.0079 -0.0936,-0.01698 -0.14056,-0.0248 -0.0292,-0.0049 -0.053,-0.01985 -0.0827,-0.02481 -0.0361,-0.006 -0.0696,-6.88e-4 -0.10749,-0.0083 -0.0199,-0.004 -0.0388,-0.01272 -0.0579,-0.01654 -0.0134,-0.0041 -0.0278,0.0027 -0.0414,0 -0.0414,-0.0083 -0.0824,-0.01787 -0.12402,-0.0248 -0.0295,-0.0049 -0.0613,0.0042 -0.0909,0 -0.0443,-0.0063 -0.0886,-0.0093 -0.13229,-0.01654 -0.019,-0.0032 -0.0388,0.0027 -0.0579,0 -0.0385,-0.0055 -0.0772,-0.01929 -0.11575,-0.0248 -0.0326,-0.0047 -0.0356,-0.0022 -0.0662,-0.0083 -0.0403,-0.0081 -0.0915,0 -0.13229,0 h -0.29766 -0.2067 c -0.0193,0 -0.071,-0.0067 -0.091,0 -0.004,0.0012 -0.005,0.007 -0.008,0.0083 -0.0275,0.0092 -0.0627,-0.0071 -0.091,0 -0.0459,0.01146 -0.0477,0.0011 -0.0909,0.0083 -0.004,6.35e-4 -0.005,0.007 -0.008,0.0083 -0.0174,0.0058 -0.0405,-0.0058 -0.0579,0 -0.006,0.002 -0.0105,0.0071 -0.0165,0.0083 -0.0316,0.0063 -0.068,-0.0078 -0.0992,0 -0.006,0.0015 -0.0106,0.0068 -0.0165,0.0083 -0.0401,0.01003 -0.11521,0 -0.1571,0 -0.0602,0 -0.12488,0.006 -0.1819,-0.0083 -0.016,-0.004 -0.0333,0.0027 -0.0496,0 -0.006,-0.001 -0.0105,-0.0071 -0.0165,-0.0083 -0.0186,-0.0037 -0.0392,0.0031 -0.0579,0 -0.0262,-0.0044 -0.0499,-0.01041 -0.0744,-0.01654 -0.0285,-0.0071 -0.0624,0.0071 -0.0909,0 -0.0499,-0.01247 -0.10435,-0.0083 -0.15709,-0.0083 h -0.32246 c -0.0247,0 -0.11415,-0.0091 -0.1323,0 -0.0154,0.0077 -0.0224,0.0083 -0.0413,0.0083"
       id="path5105"
       sodipodi:nodetypes="cscccccccccccccccccccccccccccccccccccccccsccccccccccccccccccccccccccsccccccccccccsccccsccccccccccccccccccccscccccccccccccccccccccsccccccccccccccccsccccccccccccscccccscccccccsccccsccccccccccccccccccccccccccccscccccccccccsccccccccscscccccscscsccccccsscc" /><path
       style="fill:#ffffff;fill-opacity:1;stroke-width:0.264583"
       d="m 113.69157,76.552288 c 0.0311,-0.02748 0.0659,-0.0701 0.0994,-0.09354 0.0402,-0.02813 0.0915,-0.0409 0.13447,-0.06431 0.11034,-0.06019 -0.0483,0.02637 0.0526,-0.04093 0.009,-0.0058 0.0198,-0.007 0.0292,-0.01169 0.0437,-0.02187 0.0162,-0.01274 0.0585,-0.04093 0.007,-0.0048 0.0163,-0.0066 0.0234,-0.01169 0.0273,-0.0195 0.008,-0.01839 0.0409,-0.03508 0.003,-0.0017 0.009,0.0023 0.0117,0 0.0112,-0.0084 0.0126,-0.02608 0.0234,-0.03508 0.01,-0.0084 0.0258,-0.0083 0.0351,-0.01754 0.0132,-0.01322 0.0219,-0.03355 0.0351,-0.04677 0.003,-0.0031 0.008,-0.0034 0.0117,-0.0058 0.004,-0.0024 0.0582,-0.0639 0.0585,-0.06431 0.005,-0.007 0.007,-0.01614 0.0117,-0.02339 0.0136,-0.02033 0.0189,-0.0049 0.0351,-0.02923 0.003,-0.0051 0.002,-0.01261 0.006,-0.01754 0.003,-0.0035 0.009,-0.0028 0.0117,-0.0058 0.009,-0.0088 0.0159,-0.01925 0.0234,-0.02923 0.004,-0.0054 0.0121,-0.02561 0.0175,-0.02923 0.0126,-0.0084 0.0103,0.0087 0.0175,-0.0058 0.003,-0.0055 0.002,-0.01273 0.006,-0.01754 0.0158,-0.01977 0.0227,-0.01026 0.0351,-0.03508 0.003,-0.0062 -0.006,-0.0078 0.006,-0.01169 0.004,-0.0012 0.008,0.0022 0.0117,0 0.008,-0.0054 0.01,-0.0173 0.0175,-0.02339 0.009,-0.0071 0.0212,-0.0095 0.0292,-0.01754 0.003,-0.0031 0.003,-0.0086 0.006,-0.01169 0.006,-0.0062 0.0161,-0.0069 0.0234,-0.01169 0.0114,-0.0076 0.0368,-0.02508 0.0468,-0.03508 0.001,-0.0014 -0.001,-0.0045 0,-0.0058 0.0156,-0.01565 0.0531,-0.03554 0.0702,-0.05262 0.003,-0.0031 0.002,-0.0093 0.006,-0.01169 0.0126,-0.0084 0.0121,0.01113 0.0234,-0.0058 0.002,-0.0032 -0.002,-0.0082 0,-0.01169 0.007,-0.01313 0.0256,-0.01813 0.0351,-0.02923 0.0237,-0.02762 0.0376,-0.05846 0.0585,-0.0877 0.003,-0.0045 0.009,-0.007 0.0117,-0.01169 0.003,-0.0053 0.003,-0.01226 0.006,-0.01754 0.003,-0.0047 0.008,-0.0074 0.0117,-0.01169 0.0104,-0.01303 0.0144,-0.02747 0.0234,-0.04093 0.005,-0.0078 0.0205,-0.01466 0.0234,-0.02339 0.003,-0.01026 10e-4,-0.0282 0.0117,-0.03508 0.004,-0.0024 0.009,-0.0028 0.0117,-0.0058 0.0128,-0.01277 0.001,-0.0095 0.006,-0.02339 0.006,-0.01937 0.026,-0.04624 0.0351,-0.06431 0.006,-0.01206 0.008,-0.02852 0.0117,-0.04093 0.002,-0.0052 0.009,-0.0071 0.0117,-0.01169 0.0187,-0.02811 0.056,-0.09963 0.0643,-0.128624 0.0303,-0.106031 0.0677,-0.208745 0.11108,-0.309865 0.008,-0.01835 0.008,-0.0341 0.0117,-0.05262 0.007,-0.0337 0.0293,-0.06497 0.0351,-0.09939 0.002,-0.01468 10e-4,-0.03266 0.006,-0.04677 8.7e-4,-0.0026 0.005,-0.0034 0.006,-0.0058 0.016,-0.032 0.0225,-0.06872 0.0409,-0.09939 0.003,-0.0047 0.01,-0.0066 0.0117,-0.01169 0.002,-0.0054 -0.001,-0.01187 0,-0.01754 0.003,-0.01274 0.0328,-0.07409 0.0409,-0.0877 0.003,-0.0047 0.009,-0.007 0.0117,-0.01169 0.007,-0.01169 0.0105,-0.03041 0.0175,-0.04093 0.005,-0.0075 0.0325,-0.03333 0.0351,-0.04093 0.005,-0.01389 -0.007,-0.01062 0.006,-0.02339 0.006,-0.0062 0.0182,-0.0047 0.0234,-0.01169 0.004,-0.0049 0.002,-0.01261 0.006,-0.01754 0.006,-0.0081 0.0221,-0.01388 0.0292,-0.02339 0.008,-0.01047 0.0307,-0.04066 0.0409,-0.04677 0.005,-0.0032 0.0122,-0.0027 0.0175,-0.0058 0.0483,-0.02898 -0.0173,0.0045 0.0175,-0.02339 0.007,-0.0054 0.0161,-0.0069 0.0234,-0.01169 0.0195,-0.01301 0.0369,-0.02432 0.0585,-0.03508 0.0182,-0.0091 0.0388,-0.01946 0.0585,-0.02339 0.008,-0.0015 0.0647,-0.0027 0.0702,0 0.0313,0.01564 0.044,0.03722 0.0643,0.06431 0.0183,0.02435 0.0435,0.04363 0.0585,0.07016 0.0103,0.01829 0.0149,0.03928 0.0234,0.05846 0.0224,0.05038 0.0476,0.09911 0.0643,0.152009 0.007,0.02119 0.0102,0.04334 0.0175,0.06431 0.006,0.01812 0.017,0.03452 0.0234,0.05262 0.005,0.01515 0.006,0.03164 0.0117,0.04677 0.0179,0.05024 0.0182,0.01878 0.0292,0.07016 0.009,0.04397 0.009,0.09037 0.0175,0.13447 0.01,0.04948 0.0208,0.09492 0.0234,0.146163 0.002,0.03504 -0.002,0.07022 0,0.105238 0.002,0.03523 0.009,0.07001 0.0117,0.105237 0.002,0.02529 -0.002,0.05075 0,0.07601 0.004,0.05468 0.0126,0.109225 0.0175,0.163702 0.005,0.05212 -0.003,0.105591 0,0.157857 0.003,0.06051 0.009,0.120767 0.0117,0.181242 0.005,0.09134 0.003,0.183368 0.006,0.274786 0.002,0.06523 0.0135,0.128315 0.0175,0.192935 0.004,0.06049 0.008,0.120807 0.0117,0.181242 0.006,0.08491 0,0.172131 0,0.257247 0,0.101601 -0.0161,0.202695 -0.0234,0.304019 -0.003,0.0462 0,0.09398 0,0.140317 0,0.04434 -0.003,0.09031 0,0.13447 0.002,0.03322 0.008,0.06658 0.0117,0.09939 0.002,0.02327 -0.002,0.04689 0,0.07016 7.9e-4,0.008 0.005,0.01541 0.006,0.02339 0.003,0.02686 -0.003,0.05491 0,0.08185 9.8e-4,0.0099 0.005,0.01934 0.006,0.02923 0.002,0.02066 -0.003,0.04375 0,0.06431 0.003,0.01782 0.008,0.03554 0.0117,0.05262 0.002,0.01147 -0.002,0.02361 0,0.03508 8.4e-4,0.0043 0.004,0.0076 0.006,0.01169 0.003,0.0088 -0.003,0.02046 0,0.02923 8.8e-4,0.0026 0.005,0.0032 0.006,0.0058 0.003,0.01107 0,0.02891 0,0.04093"
       id="path1688"
       sodipodi:nodetypes="cscccccccccccccccccccccccccccccccccccccccccccccccccccccccccccccccccccccccccccccccccccccccccscsccccccccccccc" /><path
       style="fill:#ffffff;fill-opacity:1;stroke-width:0.264583"
       d="m 116.14382,77.792073 c 0.0927,0.194776 0.18538,0.389553 0.27807,0.584329 0.0468,0.03118 0.1052,0.04965 0.14032,0.09355 0.0308,0.0385 0.0172,0.100875 0.0468,0.140316 0.0418,0.05578 0.1273,0.05767 0.18709,0.09354 0.55366,0.332196 1.18772,0.341401 1.82411,0.42095 0.21889,0.02736 0.43592,0.06618 0.65481,0.09354 0.3071,0.03839 0.6278,-0.03418 0.93545,0 0.0639,0.0071 0.1233,0.0388 0.18709,0.04677 0.18427,0.02303 0.37666,-0.02051 0.56126,0 1.14983,0.127759 2.34819,0.04677 3.50791,0.04677 h 3.41437 c 0.47567,0 0.97713,-0.04728 1.44994,0 0.0791,0.0079 0.15476,0.03886 0.23386,0.04677 0.15513,0.01551 0.31302,-0.01934 0.46772,0 0.0489,0.0061 0.0915,0.0398 0.14032,0.04677 0.18335,0.02619 0.37792,-0.02619 0.56126,0 0.0488,0.007 0.0912,0.04268 0.14032,0.04677 0.53461,0.04455 1.10062,0 1.63703,0 h 1.87088 c 0.28971,0 0.65211,-0.05667 0.93545,0 0.0216,0.0043 0.0259,0.0398 0.0468,0.04677 0.088,0.02932 0.61081,0.0014 0.70158,0.04677 0.0197,0.0099 0.0271,0.03691 0.0468,0.04677 0.0279,0.01394 0.0715,-0.02205 0.0936,0 0.011,0.01103 -0.011,0.03575 0,0.04677 0.022,0.02205 0.0715,-0.02205 0.0935,0 0.0509,0.05089 -0.083,0.0611 0.0468,0.09354 0.0605,0.01513 0.14299,-0.0441 0.18708,0 0.0234,0.02339 0.0234,0.07016 0.0468,0.09355 0.0264,0.02643 0.15224,0.0587 0.18709,0.09354 0.0738,0.07383 0.15678,0.322797 0.23386,0.374177 0.0259,0.0173 0.0715,-0.02205 0.0935,0 0.022,0.02205 -0.01,0.06396 0,0.09354 0.0484,0.145205 0.16833,0.196339 0.23386,0.327406 0.0251,0.05015 0.0757,0.133531 0.0935,0.187088 0.01,0.02958 -0.01,0.06396 0,0.09354 0.0252,0.07545 0.0684,0.0181 0.0935,0.09354 0.01,0.02958 -0.01,0.06396 0,0.09354 0.0212,0.0635 0.0741,0.109423 0.0935,0.187089 0.0179,0.07172 -0.0233,0.163862 0,0.233861 0.0862,0.258466 0.0468,0.563595 0.0468,0.841899 0,0.03748 0.0299,0.25077 0,0.280633 -0.011,0.01103 -0.0357,-0.01103 -0.0468,0 -0.0196,0.0196 -0.0326,0.11197 -0.0468,0.140316 -0.0258,0.05163 -0.22883,0.202777 -0.28063,0.233861 -0.18467,0.110801 -0.39794,0.134565 -0.60804,0.187089 -0.25331,0.06333 -0.49244,0.182677 -0.74835,0.233861 -1.07327,0.214654 0.0796,-0.02165 -0.46773,0.04677 -0.31323,0.03915 -0.17169,0.06498 -0.51449,0.09354 -0.2314,0.01928 -0.4708,-0.02564 -0.70158,0 -0.31262,0.03474 -0.62236,0.109008 -0.93545,0.140317 -0.23141,0.02314 -0.46982,-0.01931 -0.70158,0 -0.0945,0.0079 -0.18613,0.0389 -0.28063,0.04677 -0.89818,0.07485 -1.81409,-0.06913 -2.71279,0 -0.38871,0.0299 -0.78166,0.0583 -1.1693,0.09354 -0.15834,0.0144 -0.3097,0.07599 -0.46772,0.09355 -0.27463,0.03051 -0.57675,0.0439 -0.8419,0.140316 -0.0983,0.03574 -0.18235,0.104575 -0.28063,0.140317 -0.0747,0.02717 -0.15591,0.03118 -0.23387,0.04677 -0.0935,0.03118 -0.1886,0.05815 -0.28063,0.09354 -0.11082,0.04262 -0.21392,0.105398 -0.3274,0.140317 -0.0906,0.02789 -0.19067,0.01678 -0.28064,0.04677 -0.41884,0.139613 -1.23318,0.626818 -1.59025,0.888671 -0.11591,0.085 -0.21585,0.189992 -0.32741,0.280633 -0.56288,0.457341 -1.11871,0.881042 -1.44993,1.543481 -0.14286,0.285716 -0.27332,0.632851 -0.37418,0.935444 -0.0407,0.121967 -0.0458,0.254808 -0.0935,0.374177 -0.0467,0.116705 -0.12473,0.218271 -0.18709,0.327406 -0.0935,0.202679 -0.20347,0.398576 -0.28064,0.608036 -0.0328,0.08899 -0.0238,0.188632 -0.0468,0.280633 -0.10573,0.422918 -0.24408,0.871027 -0.28063,1.309622 -0.0168,0.201281 0.0168,0.406757 0,0.608039 -0.0266,0.319301 -0.0886,0.625382 -0.14032,0.935442 -0.0154,0.09227 0.009,0.187552 0,0.280633 -0.03,0.299857 -0.0981,0.593489 -0.14032,0.888672 -0.0195,0.136514 0.027,0.285964 0,0.420949 -0.0373,0.186627 -0.0565,0.376193 -0.0935,0.561266 -0.007,0.03418 -0.0399,0.05936 -0.0468,0.09354 -0.009,0.04587 0.0129,0.09535 0,0.140317 -0.0192,0.06704 -0.0744,0.120049 -0.0936,0.187089 -0.0408,0.142677 -0.0258,0.320919 -0.0468,0.467723 -0.0258,0.180649 -0.12472,0.342995 -0.18709,0.514493 -0.0714,0.196432 -0.0932,0.420169 -0.18708,0.608039 -0.0863,0.172662 -0.1934,0.340021 -0.28064,0.514493 -0.0531,0.106201 -0.0814,0.224313 -0.14031,0.327406 -0.0387,0.06768 -0.10165,0.119406 -0.14032,0.187089 -0.0791,0.138367 -0.0991,0.335733 -0.18709,0.46772 -0.0367,0.05504 -0.10362,0.08528 -0.14032,0.140316 -0.0982,0.147355 -0.14575,0.360299 -0.23386,0.514496 -0.0219,0.03829 -0.0691,0.05685 -0.0935,0.09354 -0.10086,0.151281 -0.19556,0.307033 -0.28064,0.467723 -0.0881,0.166489 -0.14961,0.345998 -0.23386,0.514497 -0.0503,0.10056 -0.13681,0.18008 -0.18709,0.28063 -0.12472,0.24945 0.0543,0.0354 -0.14031,0.32741 -0.0554,0.0831 -0.13418,0.14921 -0.18709,0.23386 -0.0523,0.0836 -0.0494,0.19244 -0.0935,0.28063 -0.0534,0.10672 -0.19771,0.21894 -0.23386,0.32741 -0.0263,0.0789 -0.0362,0.36358 -0.0936,0.42095 -0.0246,0.0247 -0.0756,0.0169 -0.0935,0.0468 -0.19714,0.0375 -0.0112,0.16276 -0.0468,0.23386 -0.01,0.0197 -0.0386,0.0263 -0.0468,0.0468 -0.0239,0.0597 -0.0362,0.12368 -0.0468,0.18709 -0.005,0.0308 0.0173,0.0676 0,0.0935 -0.0193,0.029 -0.0689,0.0221 -0.0935,0.0468 -0.0204,0.0204 -0.11774,0.23547 -0.14032,0.28063 -0.0287,0.0575 -0.0513,0.23835 -0.0935,0.28063 -0.0221,0.022 -0.10749,-0.0279 -0.0936,0 0.0833,0.16654 0.24184,0.22588 0.0468,0.42095 -0.011,0.011 -0.0357,-0.011 -0.0468,0 -0.0246,0.0247 -0.0274,0.0645 -0.0468,0.0936 -0.0483,0.0724 -0.12623,0.0631 -0.18709,0.0935 -0.0394,0.0197 -0.0541,0.0738 -0.0935,0.0935 -0.0393,0.0197 -0.15991,0.0196 -0.18709,0.0468 -0.011,0.011 0,0.0312 0,0.0468 -0.0156,0.0156 -0.0284,0.0345 -0.0468,0.0468 -0.0648,0.0432 -0.34536,0.0972 -0.42095,0.0468 -0.0637,-0.0425 -0.0513,-0.21724 -0.0935,-0.28063 -0.0193,-0.029 -0.0221,-0.0689 -0.0468,-0.0935 -0.011,-0.011 -0.0357,0.011 -0.0468,0 -0.0173,-0.0173 -0.0323,-0.1582 -0.0468,-0.18709 -0.0355,-0.0711 -0.11552,-0.11271 -0.14031,-0.18709 -0.01,-0.0296 0.01,-0.064 0,-0.0935 -0.0221,-0.0663 -0.11356,-0.0668 -0.14032,-0.0936 -0.011,-0.011 0.007,-0.0328 0,-0.0468 -0.0197,-0.0394 -0.0796,-0.0517 -0.0935,-0.0935 -0.01,-0.0296 0.0139,-0.0657 0,-0.0935 -0.007,-0.0139 -0.0357,0.011 -0.0468,0 -0.0278,-0.0278 -0.0275,-0.055 -0.0468,-0.0935 -0.0422,-0.0843 -0.15755,-0.0517 -0.18709,-0.14032 -0.01,-0.0296 0.0139,-0.0657 0,-0.0935 -0.0139,-0.0279 -0.0715,0.022 -0.0935,0 -0.0247,-0.0247 -0.0221,-0.0689 -0.0468,-0.0935 -0.022,-0.022 -0.0715,0.022 -0.0935,0 -0.0246,-0.0247 -0.0178,-0.0742 -0.0468,-0.0935 -0.0259,-0.0173 -0.064,0.01 -0.0935,0 -0.0137,-0.005 -0.0559,-0.0844 -0.0935,-0.0468 -0.0242,0.0242 0,0.2404 0,0.28064 v 0.18709 c 0.0769,0.47247 0.56516,0.93856 0.52332,1.36808 -0.61629,-0.38128 -0.84693,-0.7466 -1.20431,-1.29208 0.0436,-0.10405 0.001,-0.2222 -0.0204,-0.30986 -0.0468,-0.18709 0.0234,-0.0234 0,-0.14032 -0.0505,-0.2526 -0.12775,-0.46424 -0.18709,-0.70158 -0.0257,-0.10291 0.0208,-0.22319 0,-0.32741 -0.1593,-0.79651 -0.026,-1.621909 -0.0935,-2.432156 -0.0429,-0.514242 -0.14032,-1.026792 -0.14032,-1.543481 0,-0.572823 0.0197,0.138046 -0.0468,-0.327406 -0.0252,-0.176729 0,-0.382966 0,-0.561266 v -1.403165 c 0,-0.256564 -0.0318,-0.540464 0,-0.795126 0.0768,-0.614553 0.0468,-1.247381 0.0468,-1.870887 0,-0.684496 0.0285,-1.380665 -0.0468,-2.057974 -0.0451,-0.406088 -0.1537,-0.815277 -0.23386,-1.216078 -0.0342,-0.171111 -0.024,-0.398899 -0.0936,-0.561266 -0.0221,-0.05167 -0.0714,-0.08865 -0.0935,-0.140317 -0.0649,-0.151481 -0.0537,-0.395008 -0.0935,-0.514493 -0.0178,-0.05333 -0.0738,-0.08768 -0.0935,-0.140317 -0.0279,-0.07443 -0.0249,-0.157422 -0.0468,-0.233861 -0.0314,-0.10996 -0.1089,-0.217444 -0.14032,-0.327405 -0.0171,-0.05996 0.0151,-0.126588 0,-0.187088 -0.0169,-0.06764 -0.0799,-0.118719 -0.0935,-0.187089 -0.009,-0.04586 0,-0.09355 0,-0.140316 -0.0156,-0.06236 -0.0291,-0.12528 -0.0468,-0.187089 -0.0424,-0.1485 -0.12336,-0.315101 -0.14032,-0.467722 -0.0155,-0.139458 0.0275,-0.283358 0,-0.420949 -0.007,-0.03419 -0.0399,-0.05936 -0.0468,-0.09355 -0.0363,-0.181734 -0.0568,-0.377547 -0.0936,-0.561266 -0.0131,-0.06571 -0.0257,-0.446674 -0.0468,-0.467721 -0.011,-0.01103 -0.0357,0.01103 -0.0468,0 -0.0247,-0.02465 -0.0221,-0.06889 -0.0468,-0.09354 -0.0673,-0.06725 -0.86004,-0.364632 -1.02899,-0.420949 -0.0982,-0.03274 -0.22666,0.02519 -0.32741,0 -0.15718,-0.0393 -0.30399,-0.10757 -0.46772,-0.140317 -0.14987,-0.02997 -0.29053,-0.02834 -0.42095,-0.09354 -0.0503,-0.02513 -0.13297,0.01804 -0.18709,0 -0.0846,0.02819 -0.087,-0.07577 -0.14031,-0.09355 -0.0444,-0.01479 -0.10725,0.03307 -0.14032,0 -0.0234,-0.02339 -0.0234,-0.07016 -0.0468,-0.09354 -0.0221,-0.02205 -0.0715,0.02205 -0.0936,0 -0.0234,-0.02339 -0.0234,-0.07016 -0.0468,-0.09354 -0.0347,-0.03467 -0.12903,0.01128 -0.18709,-0.04677 -0.0582,-0.05817 -0.14148,-0.203067 -0.23386,-0.233861 -0.0421,-0.01403 -0.0982,0.01403 -0.14031,0 -0.30642,-0.10214 0.0719,0.02514 -0.0935,-0.140317 -0.0105,-0.01047 -0.16409,-0.02378 -0.18709,-0.04677 -0.0221,-0.02205 0.022,-0.07149 0,-0.09354 -0.011,-0.01102 -0.0358,0.01103 -0.0468,0 -0.0454,-0.04545 -0.0229,-0.127404 -0.0468,-0.187089 -0.0221,-0.0552 -0.11227,-0.40223 -0.0468,-0.467722 0.0453,-0.04526 0.0742,-0.01373 0.14031,-0.04677 0.46412,-0.613675 1.30149,-0.985426 1.79052,-1.305216 0.70217,-1.73644 1.04769,-2.188146 2.04461,-3.138092 0.0331,-0.03307 0.0985,0.02092 0.14032,0 0.0139,-0.007 -0.007,-0.03283 0,-0.04677 0.0328,-0.06559 0.12767,-0.142523 0.18709,-0.187088 0.0727,-0.05455 0.16957,-0.07604 0.23386,-0.140317 0.0674,-0.06736 0.098,-0.174456 0.18708,-0.233861 0.0427,-0.02848 0.11351,-0.03992 0.14032,-0.09354 0.007,-0.01394 -0.011,-0.03575 0,-0.04677 0.011,-0.01102 0.0357,0.01103 0.0468,0 0.0221,-0.02205 -0.022,-0.0715 0,-0.09354 0.011,-0.01103 0.0328,0.007 0.0468,0 0.11225,-0.05613 0.16838,-0.224506 0.28063,-0.280632 0.0279,-0.01395 0.0715,0.02205 0.0935,0 0.011,-0.01103 -0.0139,-0.0398 0,-0.04677 0.0279,-0.01394 0.0657,0.01395 0.0935,0 0.12472,-0.06236 -0.14032,-0.04677 0.0468,-0.04677 0.032,-0.05439 0.0814,-0.04338 0.12894,-0.07054 0.003,-0.0019 0.0244,-0.03404 0.0234,-0.03508 -0.003,-0.0028 -0.008,0 -0.0117,0"
       id="path1690"
       sodipodi:nodetypes="ccsccsssccsscsccccsscccccscsccccsccccccccsccccssssssccssssscscssssccccscccccccccccccsccscccccccccsccccccccccsccccscccsccccccsccccccsccccssccccccccscsscsccccccccccccscccccccssccccccscscccscsccccccccscsccssscccccc" /><g
       id="g215"
       transform="matrix(0.77923865,0,0,0.77923865,85.400251,22.079557)"
       inkscape:export-filename="Lion Cross Mane 1.png"
       inkscape:export-xdpi="1044.1703"
       inkscape:export-ydpi="1044.1703"><path
         id="path217"
         style="fill:#003366;fill-opacity:1;stroke-width:0.0846667"
         d="m 50.034807,62.342285 c -1.281111,-0.0046 -2.108331,0.137312 -3.357418,0.544153 -2.381172,0.775572 -4.160995,2.055948 -6.052343,4.354256 -0.355905,0.432487 -0.470789,0.412292 -0.321945,-0.05684 0.308374,-0.971942 1.320198,-2.247951 2.303736,-2.904733 0.468842,-0.31308 0.486049,-0.335087 0.223242,-0.287837 -1.531807,0.275393 -2.492119,0.752771 -3.466972,1.723409 -0.621638,0.61895 -0.748311,0.878403 -1.173572,1.621089 -0.194967,0.340496 -0.603513,1.327573 -0.631243,1.573593 -0.0724,0.642315 0.388215,-0.426638 0.713926,-0.902316 0.328373,-0.479565 0.455981,-1.003751 0.49816,-1.045931 0.141159,-0.141159 0.349683,3.412664 0.347783,5.931938 l -0.0016,1.714624 h 13.327868 c 10.586147,0 13.25419,-0.02963 13.388847,-0.03773 0.327887,0.48816 0.999175,1.825502 1.102258,2.551783 l -3.276489,0.05716 c -1.087645,-0.0393 -8.499442,0.138121 -14.192212,0.138181 H 39.116611 v 8.530229 c -9e-5,10.05142 -0.124776,18.256347 -0.123436,19.106357 -0.299018,-0.42444 -0.376271,-0.5353 -0.930956,-1.41539 -0.189391,-0.38253 -0.603437,-1.15647 -0.838161,-1.34851 -0.121113,0.16897 0.03439,1.21902 0.210707,1.82721 0.145884,0.5032 0.347882,1.0597 0.408235,1.23714 -0.280251,-0.27716 -1.104774,-1.33435 -1.267127,-1.59083 -7.8e-4,-0.16607 -0.08391,-4.627951 -0.08391,-13.301524 V 77.319148 l -3.443201,-0.02222 c -2.433887,-0.01563 -3.452027,-0.04971 -3.474207,-0.116272 -0.02516,-0.07552 1.058092,-0.858279 1.962671,-1.417485 0.150334,-0.09293 0.151014,-0.100819 0.01137,-0.105419 -0.256633,-0.0084 -1.413264,0.638624 -2.59209,1.433504 -1.494435,1.007695 -3.109018,2.462525 -2.878377,2.593124 0.228287,0.129265 1.945762,0.257348 3.450435,0.257348 1.057538,0 1.46516,0.027 1.44229,0.0956 -0.05316,0.159489 -1.714507,1.240486 -2.69087,1.708201 0,0 -0.826247,0.218265 -1.045873,0.417479 -0.200193,0.181588 -0.15917,0.854256 -0.15917,0.854256 0.104737,1.49391 0.978762,1.868773 3.363644,2.593367 0.822338,0.24985 1.13772,0.384085 1.05575,0.449585 -0.02194,0.01753 -0.220396,0.135277 -0.4408,0.261483 -0.220406,0.126204 -0.498109,0.351938 -0.617534,0.501778 l -0.217557,0.272335 -0.5271,-0.50798 c -0.290073,-0.2794 -0.679016,-0.583574 -0.86403,-0.676444 -0.185012,-0.09287 -0.547434,-0.286794 -0.805635,-0.430465 -0.812943,-0.45235 -0.748039,-0.484883 -1.350822,0.683679 -0.455724,0.88347 -0.527065,1.080111 -0.484725,1.341004 0.04312,0.265719 0.717255,1.325804 1.327567,2.088244 l 0.168982,0.211357 0.0088,-1.184941 0.0088,-1.185457 0.157613,0.338481 c 0.08662,0.186266 0.262419,0.567577 0.390674,0.846976 0.495439,1.079296 1.899655,3.204442 2.002979,3.03134 0.02238,-0.03749 0.181696,-0.411341 0.353983,-0.83044 0.40736,-0.990925 0.62436,-1.273967 1.024744,-1.338937 0.438292,-0.07112 0.782307,0.09927 1.178739,0.583427 0.337309,0.411952 0.338306,0.414976 0.296106,1.007691 -0.08595,1.207205 -0.01916,3.982887 0.120923,5.039485 0.164726,1.242515 0.264712,1.664634 0.779797,3.279903 0.384689,1.206355 0.607633,1.631835 2.160075,4.127915 0.702333,1.13676 2.401618,3.05713 2.674773,3.17241 -0.515088,-1.14737 -1.178627,-2.93293 -1.393582,-3.74842 0.519584,0.85552 1.900219,3.30672 2.526846,4.09052 1.075176,1.34486 2.508676,2.77389 4.28966,4.27571 0.165668,0.1397 0.513987,0.43978 0.773596,0.66714 0.594684,0.52081 1.078241,0.83199 2.249992,1.44694 1.0162,0.5411 2.133613,1.10737 3.324345,1.46038 -0.714074,-0.86507 -1.152803,-1.96706 -1.541508,-3.38067 -0.187334,-1.21508 -0.152508,-2.44365 0.290939,-4.59662 0.472015,-2.29168 0.937238,-3.64616 1.745113,-5.07979 0.543098,-0.96377 1.491016,-2.315694 1.533756,-2.187468 0.01569,0.04706 -0.0315,0.310713 -0.104903,0.586008 -0.405453,1.52064 0.178506,3.34355 0.77463,4.08348 0.07021,-0.56351 0.456307,-2.1161 0.897619,-2.99 0.307641,-0.61558 1.384459,-2.233354 2.254643,-3.386877 0.351285,-0.465666 1.384528,-1.608958 2.295984,-2.540414 1.690035,-1.727119 2.513489,-2.708343 3.410128,-4.063834 0.568327,-0.859165 1.216065,-2.109256 1.503267,-2.901632 0.105895,-0.292156 0.206389,-0.517071 0.223759,-0.499711 0.05522,0.05522 -0.382332,2.264408 -0.644922,3.256132 -0.139104,0.525355 -0.344563,1.182456 -0.456819,1.460376 -0.11226,0.27792 -0.187002,0.505396 -0.165882,0.505396 0.28883,0 2.212654,-1.912945 2.720764,-2.705262 1.154422,-1.800138 1.938031,-4.66054 2.213302,-8.080643 0.245696,-3.052654 0.07211,-4.977944 -0.843359,-7.029546 -0.45581,-1.021492 -1.559591,-2.590598 -2.233973,-3.328478 -0.423388,-0.463254 -0.425011,-0.46755 -0.248563,-0.604615 0.09769,-0.07588 0.373962,-0.290191 0.613916,-0.476456 0.850952,-0.660561 1.666357,-1.876952 2.007112,-2.993616 0.124883,-0.409262 0.184327,-0.739131 0.141077,-0.782381 -0.04325,-0.04325 -0.341077,-0.01452 -0.706417,0.06821 -1.018719,0.23069 -2.543183,0.198379 -3.637504,-0.077 -0.489082,-0.123074 -1.131159,-0.314224 -1.426786,-0.424781 l -0.537435,-0.201021 0.497127,-0.306958 c 0.496244,-0.306299 1.251241,-1.037412 1.632976,-1.581299 l 0.202054,-0.287321 -0.289904,0.05168 c -1.052178,0.186696 -1.951945,0.244895 -3.169316,0.205155 l -1.355473,-0.04444 -0.900203,-0.432015 c -2.468382,-1.184694 -4.404198,-1.695343 -6.692615,-1.765783 -0.204094,-0.0063 -0.396277,-0.0102 -0.579293,-0.01085 z M 37.40644,68.844543 c 0.09335,0 -2.164388,1.398414 -2.919521,1.965442 -1.272798,0.95574 -1.578394,1.385644 -2.390552,3.364136 -0.236665,0.576537 -0.440799,1.176018 -0.440799,1.193208 0,0.01719 0.05961,0.03152 0.103996,0.03152 0.04439,0 0.143273,-0.284467 0.235512,-0.492993 l 0.167949,-0.379305 2.164209,0.05426 2.164726,0.05374 V 72.355627 70.07618 l 0.348299,-0.358635 c 0.191626,-0.19743 0.496027,-0.449772 0.537237,-0.449772 0.0412,0 0.07493,-0.09546 0.07493,-0.211873 0,-0.116417 -0.07148,-0.211357 -0.04599,-0.211357 z M 25.898813,81.681156 c -0.0698,-0.0061 -0.07462,0.101237 -0.0739,0.480074 0.0016,0.860367 0.317477,1.831596 0.729155,2.243274 0.127181,0.127177 0.245039,0.189879 0.261999,0.13901 0.01696,-0.05087 0.1808,-0.396156 0.107244,-0.739778 -0.07356,-0.343624 -0.181675,-0.788627 -0.230745,-1.043805 -0.107991,-0.561597 -0.474743,-0.919863 -0.700221,-1.040535 -0.03996,-0.02139 -0.07027,-0.0362 -0.09353,-0.03824 z"
         sodipodi:nodetypes="sssssssssssccscccccccccsccsccssssssscscssscccsssscccccsssssssscccssscccssssccssssssssssssssssssscccccccsssssssscccccccssssssssssssss" /><path
         style="fill:#ff2400;fill-opacity:1;stroke-width:0.0846667"
         d="M 37.389227,98.38329 C 37.247911,94.754474 37.17189,89.349328 37.170641,82.841536 l -0.0014,-7.0485 H 36.07825 c -1.61761,0 -6.481658,-0.167986 -7.163962,-0.247416 l -0.592666,-0.069 0.592666,-0.01278 c 0.325967,-0.007 2.230967,-0.06833 4.233334,-0.136233 2.002366,-0.0679 3.73933,-0.12431 3.859919,-0.125352 l 0.219254,-0.0019 0.05747,-2.942167 c 0.07185,-3.678301 0.146458,-5.381849 0.231918,-5.295286 0.07388,0.07484 0.245774,4.916669 0.245774,6.923047 v 1.291004 l 8.8265,0.0055 c 4.854575,0.003 9.988551,0.04523 11.408834,0.09383 1.420283,0.04859 3.420533,0.117029 4.445,0.152079 2.341434,0.08011 1.877312,0.135511 -2.413,0.288046 -1.970371,0.07005 -6.54586,0.111522 -12.625235,0.114425 l -9.534902,0.0045 -0.04744,9.355667 c -0.04503,8.87956 -0.162751,14.437394 -0.309013,14.589254 -0.03651,0.03791 -0.09207,-0.590744 -0.123468,-1.397 z"
         id="path221" /></g></g></svg>
