<?xml version="1.0" encoding="UTF-8" standalone="no"?>
<!-- Created with Inkscape (http://www.inkscape.org/) -->

<svg
   width="32.732002mm"
   height="40.943832mm"
   viewBox="0 0 32.732002 40.943832"
   version="1.1"
   id="svg5"
   xml:space="preserve"
   sodipodi:docname="Lion Cross Mane.svg"
   inkscape:version="1.2.2 (732a01da63, 2022-12-09)"
   inkscape:export-filename="Lion Cross Mane Square 2048.png"
   inkscape:export-xdpi="866.98669"
   inkscape:export-ydpi="866.98669"
   xmlns:inkscape="http://www.inkscape.org/namespaces/inkscape"
   xmlns:sodipodi="http://sodipodi.sourceforge.net/DTD/sodipodi-0.dtd"
   xmlns="http://www.w3.org/2000/svg"
   xmlns:svg="http://www.w3.org/2000/svg"><sodipodi:namedview
     id="namedview7"
     pagecolor="#000000"
     bordercolor="#000000"
     borderopacity="0.25"
     inkscape:showpageshadow="2"
     inkscape:pageopacity="0"
     inkscape:pagecheckerboard="true"
     inkscape:deskcolor="#d1d1d1"
     inkscape:document-units="mm"
     showgrid="false"
     inkscape:zoom="5.3807119"
     inkscape:cx="37.169803"
     inkscape:cy="73.038663"
     inkscape:window-width="1920"
     inkscape:window-height="974"
     inkscape:window-x="1909"
     inkscape:window-y="-11"
     inkscape:window-maximized="1"
     inkscape:current-layer="layer1"><sodipodi:guide
       position="-13.713848,49.549942"
       orientation="0,226.77165"
       id="guide7099"
       inkscape:locked="false" /><sodipodi:guide
       position="46.286153,49.549942"
       orientation="226.77165,0"
       id="guide7101"
       inkscape:locked="false" /><sodipodi:guide
       position="46.286153,-10.450059"
       orientation="0,-226.77165"
       id="guide7103"
       inkscape:locked="false" /><sodipodi:guide
       position="-13.713848,-10.450059"
       orientation="-226.77165,0"
       id="guide7105"
       inkscape:locked="false" /></sodipodi:namedview><defs
     id="defs2" /><g
     inkscape:label="Layer 1"
     inkscape:groupmode="layer"
     id="layer1"
     transform="translate(-105.39326,-70.659025)"><path
       style="fill:#ffffff;fill-opacity:1;stroke-width:0.264583"
       d="m 105.77261,84.096014 c -0.16626,0.11961 -0.35832,0.659465 -0.37728,0.911613 -0.0226,0.300776 0.14658,0.711373 0.19085,0.788657 -0.015,0.03459 -0.0117,0.02097 -0.008,0.02791 0.006,0.01257 0.002,0.02877 0.008,0.04134 0.003,0.0055 0.004,0.01218 0.008,0.01654 0.002,0.002 0.007,-0.0025 0.008,0 0.006,0.01167 0.003,0.06604 0.008,0.08268 0.004,0.0126 0.0128,0.02646 0.0165,0.04134 0.003,0.01069 -0.003,0.02261 0,0.03307 0.004,0.01169 0.0131,0.02122 0.0165,0.03307 0.004,0.01325 -0.004,0.02827 0,0.04134 0.001,0.0037 0.007,0.0046 0.008,0.0083 0.007,0.01984 -0.007,0.0463 0,0.06615 0.005,0.01429 0.0105,0.03749 0.0165,0.04961 0.004,0.0082 0.0137,0.01624 0.0165,0.02481 0.004,0.01197 0.002,0.02963 0.008,0.04134 0.002,0.0035 0.007,0.0046 0.008,0.0083 5.6e-4,0.0017 -0.003,0.03032 0,0.03307 0.002,0.002 0.006,-0.002 0.008,0 0.009,0.0086 0.0123,0.05336 0.0165,0.06615 0.004,0.0122 0.0131,0.02267 0.0165,0.03307 0.003,0.01046 -0.003,0.02261 0,0.03307 0.001,0.0037 0.007,0.0048 0.008,0.0083 0.003,0.006 0.007,0.06456 0.008,0.07441 0.005,0.03048 0.0199,0.06168 0.0248,0.09095 0.002,0.01087 -0.002,0.0222 0,0.03307 10e-4,0.0061 0.006,0.01103 0.008,0.01654 0.003,0.01103 0.007,0.02182 0.008,0.03307 0.002,0.01637 -0.004,0.03357 0,0.04961 0.003,0.01045 0.0209,0.03781 0.0248,0.04961 0.0128,0.03833 0.0145,0.08698 0.0331,0.124023 0.003,0.0055 0.004,0.01218 0.008,0.01654 0.002,0.002 0.007,-0.0025 0.008,0 0.002,0.0049 -0.002,0.01131 0,0.01654 10e-4,0.0037 0.006,0.0055 0.008,0.0083 0.003,0.0055 0.007,0.01056 0.008,0.01654 0.009,0.03784 -0.0167,-0.0086 0.008,0.04134 0.003,0.007 0.0122,0.01005 0.0165,0.01654 0.007,0.01105 0.0212,0.03879 0.0248,0.04961 -0.0145,0.07806 0.13632,0.788111 0.12278,0.57972 0.0877,0.06951 0.32087,0.471283 0.36833,0.598434 0.0414,0.110941 0.0512,0.517603 0.0526,0.536966 0.004,0.01199 0.20591,-0.02651 0.21481,-0.01763 0.004,0.0044 0.0138,0.0028 0.0165,0.0083 0.004,0.0074 -0.004,0.01741 0,0.02479 0.003,0.0055 -0.0482,0.07675 -0.0434,0.08065 0.10814,0.150806 0.25844,0.21244 0.41306,0.30586 0.007,0.0039 0.01,0.01267 0.0165,0.01654 0.0236,0.01347 0.0489,0.02379 0.0744,0.03307 0.0189,0.0069 0.0396,0.0084 0.0579,0.01654 0.007,0.0032 0.01,0.01304 0.0165,0.01654 0.0102,0.0051 0.0224,0.0043 0.0331,0.0083 0.13733,0.0515 -0.0541,-0.0149 0.0579,0.03307 0.0258,0.01106 0.0569,0.01376 0.0827,0.02479 0.0277,0.01185 0.0544,0.02921 0.0827,0.04134 0.0325,0.01392 0.0276,0.0034 0.0662,0.02479 0.012,0.0067 0.0207,0.01865 0.0331,0.02479 0.0156,0.0078 0.0337,0.0093 0.0496,0.01654 0.0382,0.01738 0.0707,0.04775 0.10749,0.06615 0.0402,0.02008 0.049,0.009 0.0827,0.03307 0.01,0.0068 0.0153,0.01802 0.0248,0.02479 0.01,0.0072 0.0228,0.0097 0.0331,0.01654 0.0368,0.02455 0.071,0.05712 0.10749,0.08268 0.0315,0.02204 0.0672,0.0365 0.0992,0.05788 0.0112,0.0075 0.0431,0.03395 0.0579,0.04134 0.008,0.0039 0.018,0.0028 0.0248,0.0083 0.008,0.0062 0.008,0.01929 0.0165,0.02479 0.009,0.0063 0.0229,0.0032 0.0331,0.0083 0.007,0.0035 0.01,0.01251 0.0165,0.01654 0.007,0.0045 0.0173,0.0038 0.0248,0.0083 0.007,0.004 0.01,0.01251 0.0165,0.01654 0.007,0.0045 0.017,0.0044 0.0248,0.0083 0.0412,0.02058 0.0333,0.02167 0.0661,0.04134 0.0361,0.02167 -0.006,-0.0071 0.0414,0.01654 0.0144,0.0072 0.0283,0.01545 0.0413,0.02479 0.006,0.0045 0.009,0.01365 0.0165,0.01654 0.008,0.0031 0.0171,-0.0031 0.0248,0 0.007,0.0029 0.01,0.01304 0.0165,0.01654 0.0816,0.0204 -0.003,-0.0068 0.0496,0.02479 0.0218,0.01307 0.0517,0.01344 0.0744,0.02479 0.009,0.0044 0.0159,0.01209 0.0248,0.01654 0.0136,0.0068 0.0355,0.0036 0.0496,0.0083 0.0242,0.0081 0.0399,0.0326 0.0661,0.04134 0.0164,0.0055 0.0561,0.0032 0.0661,0.0083 0.0579,0.02893 0.26773,0.01876 0.33073,0.0083 0.0302,-0.005 0.0565,-0.03649 0.0827,-0.04961 0.035,-0.01752 0.0726,-0.03217 0.10749,-0.04961 0.0256,-0.01281 0.0317,-0.02635 0.0579,-0.04134 0.0284,-0.01624 0.0257,-5.29e-4 0.0579,-0.01654 0.007,-0.0035 0.011,-0.01103 0.0165,-0.01654 0.0221,-0.0055 0.0448,-0.0088 0.0661,-0.01654 0.0254,-0.0092 0.0433,-0.0398 0.0661,-0.04961 0.0129,-0.0055 0.0282,-0.0033 0.0414,-0.0083 0.0309,-0.01159 0.022,-0.02296 0.0496,-0.04134 0.007,-0.0048 0.0175,-0.0034 0.0248,-0.0083 0.0273,-0.01818 0.0429,-0.04625 0.0661,-0.06615 0.009,-0.008 0.0243,-0.0078 0.0331,-0.01654 0.009,-0.0087 0.009,-0.0236 0.0165,-0.03307 0.006,-0.0076 0.0183,-0.009 0.0248,-0.01654 0.0172,-0.02008 0.0241,-0.04605 0.0413,-0.06615 0.0152,-0.01775 0.0366,-0.03015 0.0496,-0.04961 0.0166,-0.02495 0.0284,-0.0485 0.0413,-0.07441 0.0271,-0.0541 0.005,0.0052 0.0413,-0.04961 0.0279,-0.04189 0.0763,-0.138978 0.0909,-0.190169 0.003,-0.01061 -0.003,-0.02238 0,-0.03307 0.003,-0.01196 0.0136,-0.02111 0.0165,-0.03307 0.008,-0.03394 0,-0.08077 0,-0.115755 0,-0.02286 0.005,-0.05253 0,-0.07441 -0.0108,-0.0431 -0.0271,-0.08887 -0.0579,-0.124024 -0.007,-0.0075 -0.0178,-0.0095 -0.0248,-0.01654 -0.0154,-0.0154 -0.0356,-0.04033 -0.0496,-0.05788 -0.006,-0.0078 -0.009,-0.0186 -0.0165,-0.02479 -0.007,-0.0055 -0.017,-0.0044 -0.0248,-0.0083 -0.0294,-0.01471 -0.0541,-0.04072 -0.0827,-0.05788 -0.0151,-0.0091 -0.025,-0.02652 -0.0413,-0.03307 -0.008,-0.0031 -0.0172,0.0033 -0.0248,0 -0.0253,-0.01085 -0.0406,-0.03937 -0.0661,-0.04961 -0.0156,-0.0062 -0.0339,-0.0026 -0.0496,-0.0083 -0.0388,-0.0141 -0.0721,-0.04648 -0.10748,-0.06615 -0.026,-0.01442 -0.0566,-0.01887 -0.0827,-0.03307 -0.0174,-0.0095 -0.0318,-0.02418 -0.0496,-0.03307 -0.0156,-0.0078 -0.0338,-0.0092 -0.0496,-0.01654 -0.0362,-0.01349 -0.0646,-0.04157 -0.0992,-0.05788 -0.0324,-0.01526 -0.0668,-0.02608 -0.0992,-0.04134 -0.0145,-0.0068 -0.0267,-0.01816 -0.0413,-0.02481 -0.0159,-0.0072 -0.0337,-0.0093 -0.0496,-0.01654 -0.0146,-0.0066 -0.0265,-0.01862 -0.0413,-0.0248 -0.0185,-0.0077 -0.0399,-0.0076 -0.0579,-0.01654 -0.0158,-0.0079 -0.0256,-0.02518 -0.0413,-0.03307 -0.0179,-0.009 -0.0394,-0.0086 -0.0579,-0.01654 -0.0798,-0.03421 -0.15167,-0.09285 -0.22324,-0.14056 -0.0267,-0.01783 -0.0573,-0.02988 -0.0827,-0.04961 -0.0123,-0.0096 -0.0201,-0.02442 -0.0331,-0.03307 -0.0123,-0.0082 -0.0286,-0.0089 -0.0413,-0.01654 -0.0151,-0.0091 -0.0267,-0.02328 -0.0413,-0.03307 -0.0102,-0.0068 -0.0233,-0.009 -0.0331,-0.01654 -0.0569,-0.04424 -0.0217,-0.03449 -0.0744,-0.06615 -0.0159,-0.0095 -0.0346,-0.01393 -0.0496,-0.0248 -0.0158,-0.01146 -0.0249,-0.03088 -0.0413,-0.04134 -0.0147,-0.0094 -0.0349,-0.0072 -0.0496,-0.01654 -0.0164,-0.01046 -0.026,-0.02938 -0.0413,-0.04134 -0.01,-0.0076 -0.0228,-0.0097 -0.0331,-0.01654 -0.0266,-0.0177 -0.0479,-0.04018 -0.0744,-0.05788 -0.0598,-0.03985 -0.12228,-0.07601 -0.18191,-0.115755 -0.0454,-0.03027 -0.0859,-0.07023 -0.13229,-0.09922 -0.0105,-0.0065 -0.0232,-0.0091 -0.0331,-0.01654 -0.0125,-0.0094 -0.0199,-0.02481 -0.0331,-0.03307 -0.01,-0.006 -0.0236,-0.002 -0.0331,-0.0083 -0.008,-0.0055 -0.009,-0.01844 -0.0165,-0.0248 -0.009,-0.0079 -0.023,-0.0094 -0.0331,-0.01654 -0.0325,-0.02318 -0.0611,-0.05659 -0.0909,-0.08268 -0.0149,-0.01309 -0.0356,-0.01902 -0.0496,-0.03307 -0.007,-0.007 -0.0103,-0.01704 -0.0165,-0.02481 -0.026,-0.03255 -0.0602,-0.05489 -0.0827,-0.09095 -0.007,-0.01045 -0.009,-0.02371 -0.0165,-0.03307 -0.009,-0.01046 -0.024,-0.01443 -0.0331,-0.02481 -0.0146,-0.01673 -0.0486,-0.06784 -0.0579,-0.09095 -0.007,-0.01639 -0.005,-0.0326 -0.0165,-0.04961 -0.0727,-0.109108 -0.0992,-0.224109 -0.0992,-0.355534 0,-0.06474 -0.007,-0.135846 0.008,-0.198437 0.006,-0.02278 0.0292,-0.03133 0.0413,-0.04961 0.005,-0.0073 0.004,-0.01733 0.008,-0.02481 0.008,-0.0139 0.042,-0.03375 0.0496,-0.04134 0.007,-0.007 0.01,-0.01778 0.0165,-0.02481 0.0327,-0.03271 0.0782,-0.05764 0.11575,-0.08268 0.0376,-0.02508 0.0694,-0.05841 0.10749,-0.08268 0.0351,-0.02232 0.0548,-0.02526 0.0909,-0.04134 0.0319,-0.01416 0.0583,-0.03736 0.091,-0.04961 0.0106,-0.004 0.0231,-0.0027 0.0331,-0.0083 0.0154,-0.0086 0.0262,-0.02399 0.0413,-0.03307 0.0127,-0.0076 0.0281,-0.0099 0.0413,-0.01654 0.0287,-0.01437 0.0539,-0.03524 0.0827,-0.04961 0.0559,-0.02797 0.12402,-0.04482 0.1819,-0.06615 0.0779,-0.02871 0.15353,-0.06222 0.23151,-0.09095 0.0352,-0.01296 0.073,-0.01831 0.10749,-0.03307 0.0204,-0.0088 0.0377,-0.02376 0.0579,-0.03307 0.10034,-0.04631 0.002,0.01129 0.0909,-0.03307 0.24775,-0.123872 -0.11807,0.04663 0.10749,-0.06615 0.0156,-0.0078 0.0343,-0.0083 0.0496,-0.01654 0.0209,-0.01124 0.0374,-0.0294 0.0579,-0.04134 0.0128,-0.0075 0.0286,-0.0089 0.0413,-0.01654 0.0151,-0.0091 0.0262,-0.02399 0.0413,-0.03307 0.0127,-0.0076 0.029,-0.0083 0.0413,-0.01654 0.0211,-0.01409 0.038,-0.03374 0.0579,-0.04961 0.0651,-0.05208 -0.0213,0.02351 0.0579,-0.03307 0.0313,-0.02238 0.0596,-0.05203 0.0909,-0.07441 0.01,-0.0072 0.0228,-0.0097 0.0331,-0.01654 0.0162,-0.01081 0.0261,-0.02917 0.0413,-0.04134 0.0312,-0.02492 0.0706,-0.04582 0.0992,-0.07441 0.004,-0.0044 0.003,-0.01284 0.008,-0.01654 0.007,-0.0052 0.0173,-0.0038 0.0248,-0.0083 0.0134,-0.008 0.022,-0.02205 0.0331,-0.03307 0.0286,-0.02863 0.0601,-0.05714 0.0827,-0.09095 0.005,-0.0073 0.003,-0.01755 0.008,-0.0248 0.0119,-0.01791 0.0303,-0.03115 0.0413,-0.04961 0.006,-0.0097 0.003,-0.02291 0.008,-0.03307 0.009,-0.01778 0.0228,-0.03257 0.0331,-0.04961 0.0254,-0.04227 0.0412,-0.09063 0.0661,-0.132292 0.0173,-0.02888 0.0404,-0.05358 0.0579,-0.08268 0.003,-0.0053 0.006,-0.01102 0.008,-0.01654 0.003,-0.0083 0.004,-0.01733 0.008,-0.02481 0.004,-0.0067 0.013,-0.0096 0.0165,-0.01654 0.002,-0.0049 -0.001,-0.01119 0,-0.01654 0.004,-0.0143 0.0166,-0.03732 0.0248,-0.04961 0.0156,-0.02341 0.005,0.01567 0.0248,-0.03307 0.005,-0.0117 0.006,-0.07981 0,-0.09095 -0.0179,-0.0358 -0.0648,-0.03998 -0.091,-0.06615 -0.002,-0.002 0.002,-0.0063 0,-0.0083 -0.004,-0.0041 -0.0442,-0.0069 -0.0496,-0.0083 -0.004,-9.53e-4 -0.005,-0.0068 -0.008,-0.0083 -0.0106,-0.0042 -0.0225,-0.004 -0.0331,-0.0083 -0.0173,-0.0069 -0.0288,-0.0196 -0.0496,-0.02481 -0.0279,-0.007 -0.076,-5.29e-4 -0.0992,-0.0083 -0.004,-0.0012 -0.005,-0.007 -0.008,-0.0083 -0.0171,-0.0057 -0.0402,-0.0039 -0.0579,-0.0083 -0.0207,-0.0052 -0.0358,-0.02112 -0.0579,-0.02481 -0.0472,-0.0079 -0.0936,-0.01698 -0.14056,-0.0248 -0.0292,-0.0049 -0.053,-0.01985 -0.0827,-0.02481 -0.0361,-0.006 -0.0696,-6.88e-4 -0.10749,-0.0083 -0.0199,-0.004 -0.0388,-0.01272 -0.0579,-0.01654 -0.0134,-0.0041 -0.0278,0.0027 -0.0414,0 -0.0414,-0.0083 -0.0824,-0.01787 -0.12402,-0.0248 -0.0295,-0.0049 -0.0613,0.0042 -0.0909,0 -0.0443,-0.0063 -0.0886,-0.0093 -0.13229,-0.01654 -0.019,-0.0032 -0.0388,0.0027 -0.0579,0 -0.0385,-0.0055 -0.0772,-0.01929 -0.11575,-0.0248 -0.0326,-0.0047 -0.0356,-0.0022 -0.0662,-0.0083 -0.0403,-0.0081 -0.0915,0 -0.13229,0 h -0.29766 -0.2067 c -0.0193,0 -0.071,-0.0067 -0.091,0 -0.004,0.0012 -0.005,0.007 -0.008,0.0083 -0.0275,0.0092 -0.0627,-0.0071 -0.091,0 -0.0459,0.01146 -0.0477,0.0011 -0.0909,0.0083 -0.004,6.35e-4 -0.005,0.007 -0.008,0.0083 -0.0174,0.0058 -0.0405,-0.0058 -0.0579,0 -0.006,0.002 -0.0105,0.0071 -0.0165,0.0083 -0.0316,0.0063 -0.068,-0.0078 -0.0992,0 -0.006,0.0015 -0.0106,0.0068 -0.0165,0.0083 -0.0401,0.01003 -0.11521,0 -0.1571,0 -0.0602,0 -0.12488,0.006 -0.1819,-0.0083 -0.016,-0.004 -0.0333,0.0027 -0.0496,0 -0.006,-0.001 -0.0105,-0.0071 -0.0165,-0.0083 -0.0186,-0.0037 -0.0392,0.0031 -0.0579,0 -0.0262,-0.0044 -0.0499,-0.01041 -0.0744,-0.01654 -0.0285,-0.0071 -0.0624,0.0071 -0.0909,0 -0.0499,-0.01247 -0.10435,-0.0083 -0.15709,-0.0083 h -0.32246 c -0.0247,0 -0.11415,-0.0091 -0.1323,0 -0.0154,0.0077 -0.0224,0.0083 -0.0413,0.0083"
       id="path5105"
       sodipodi:nodetypes="cscccccccccccccccccccccccccccccccccccccccsccccccccccccccccccccccccccsccccccccccccsccccsccccccccccccccccccccscccccccccccccccccccccsccccccccccccccccsccccccccccccscccccscccccccsccccsccccccccccccccccccccccccccccscccccccccccsccccccccscscccccscscsccccccsscc" /><path
       style="fill:#ffffff;fill-opacity:1;stroke-width:0.264583"
       d="m 113.69157,76.552288 c 0.0311,-0.02748 0.0659,-0.0701 0.0994,-0.09354 0.0402,-0.02813 0.0915,-0.0409 0.13447,-0.06431 0.11034,-0.06019 -0.0483,0.02637 0.0526,-0.04093 0.009,-0.0058 0.0198,-0.007 0.0292,-0.01169 0.0437,-0.02187 0.0162,-0.01274 0.0585,-0.04093 0.007,-0.0048 0.0163,-0.0066 0.0234,-0.01169 0.0273,-0.0195 0.008,-0.01839 0.0409,-0.03508 0.003,-0.0017 0.009,0.0023 0.0117,0 0.0112,-0.0084 0.0126,-0.02608 0.0234,-0.03508 0.01,-0.0084 0.0258,-0.0083 0.0351,-0.01754 0.0132,-0.01322 0.0219,-0.03355 0.0351,-0.04677 0.003,-0.0031 0.008,-0.0034 0.0117,-0.0058 0.004,-0.0024 0.0582,-0.0639 0.0585,-0.06431 0.005,-0.007 0.007,-0.01614 0.0117,-0.02339 0.0136,-0.02033 0.0189,-0.0049 0.0351,-0.02923 0.003,-0.0051 0.002,-0.01261 0.006,-0.01754 0.003,-0.0035 0.009,-0.0028 0.0117,-0.0058 0.009,-0.0088 0.0159,-0.01925 0.0234,-0.02923 0.004,-0.0054 0.0121,-0.02561 0.0175,-0.02923 0.0126,-0.0084 0.0103,0.0087 0.0175,-0.0058 0.003,-0.0055 0.002,-0.01273 0.006,-0.01754 0.0158,-0.01977 0.0227,-0.01026 0.0351,-0.03508 0.003,-0.0062 -0.006,-0.0078 0.006,-0.01169 0.004,-0.0012 0.008,0.0022 0.0117,0 0.008,-0.0054 0.01,-0.0173 0.0175,-0.02339 0.009,-0.0071 0.0212,-0.0095 0.0292,-0.01754 0.003,-0.0031 0.003,-0.0086 0.006,-0.01169 0.006,-0.0062 0.0161,-0.0069 0.0234,-0.01169 0.0114,-0.0076 0.0368,-0.02508 0.0468,-0.03508 0.001,-0.0014 -0.001,-0.0045 0,-0.0058 0.0156,-0.01565 0.0531,-0.03554 0.0702,-0.05262 0.003,-0.0031 0.002,-0.0093 0.006,-0.01169 0.0126,-0.0084 0.0121,0.01113 0.0234,-0.0058 0.002,-0.0032 -0.002,-0.0082 0,-0.01169 0.007,-0.01313 0.0256,-0.01813 0.0351,-0.02923 0.0237,-0.02762 0.0376,-0.05846 0.0585,-0.0877 0.003,-0.0045 0.009,-0.007 0.0117,-0.01169 0.003,-0.0053 0.003,-0.01226 0.006,-0.01754 0.003,-0.0047 0.008,-0.0074 0.0117,-0.01169 0.0104,-0.01303 0.0144,-0.02747 0.0234,-0.04093 0.005,-0.0078 0.0205,-0.01466 0.0234,-0.02339 0.003,-0.01026 10e-4,-0.0282 0.0117,-0.03508 0.004,-0.0024 0.009,-0.0028 0.0117,-0.0058 0.0128,-0.01277 0.001,-0.0095 0.006,-0.02339 0.006,-0.01937 0.026,-0.04624 0.0351,-0.06431 0.006,-0.01206 0.008,-0.02852 0.0117,-0.04093 0.002,-0.0052 0.009,-0.0071 0.0117,-0.01169 0.0187,-0.02811 0.056,-0.09963 0.0643,-0.128624 0.0303,-0.106031 0.0677,-0.208745 0.11108,-0.309865 0.008,-0.01835 0.008,-0.0341 0.0117,-0.05262 0.007,-0.0337 0.0293,-0.06497 0.0351,-0.09939 0.002,-0.01468 10e-4,-0.03266 0.006,-0.04677 8.7e-4,-0.0026 0.005,-0.0034 0.006,-0.0058 0.016,-0.032 0.0225,-0.06872 0.0409,-0.09939 0.003,-0.0047 0.01,-0.0066 0.0117,-0.01169 0.002,-0.0054 -0.001,-0.01187 0,-0.01754 0.003,-0.01274 0.0328,-0.07409 0.0409,-0.0877 0.003,-0.0047 0.009,-0.007 0.0117,-0.01169 0.007,-0.01169 0.0105,-0.03041 0.0175,-0.04093 0.005,-0.0075 0.0325,-0.03333 0.0351,-0.04093 0.005,-0.01389 -0.007,-0.01062 0.006,-0.02339 0.006,-0.0062 0.0182,-0.0047 0.0234,-0.01169 0.004,-0.0049 0.002,-0.01261 0.006,-0.01754 0.006,-0.0081 0.0221,-0.01388 0.0292,-0.02339 0.008,-0.01047 0.0307,-0.04066 0.0409,-0.04677 0.005,-0.0032 0.0122,-0.0027 0.0175,-0.0058 0.0483,-0.02898 -0.0173,0.0045 0.0175,-0.02339 0.007,-0.0054 0.0161,-0.0069 0.0234,-0.01169 0.0195,-0.01301 0.0369,-0.02432 0.0585,-0.03508 0.0182,-0.0091 0.0388,-0.01946 0.0585,-0.02339 0.32966,-0.176432 0.4042,0.006 0.2807,0.344939 0.007,0.02119 0.0102,0.04334 0.0175,0.06431 0.006,0.01812 0.017,0.03452 0.0234,0.05262 0.005,0.01515 0.006,0.03164 0.0117,0.04677 0.0179,0.05024 0.0182,0.01878 0.0292,0.07016 0.009,0.04397 0.009,0.09037 0.0175,0.13447 0.01,0.04948 0.0208,0.09492 0.0234,0.146163 0.002,0.03504 -0.002,0.07022 0,0.105238 0.002,0.03523 0.009,0.07001 0.0117,0.105237 0.002,0.02529 -0.002,0.05075 0,0.07601 0.004,0.05468 0.0126,0.109225 0.0175,0.163702 0.005,0.05212 -0.003,0.105591 0,0.157857 0.003,0.06051 0.009,0.120767 0.0117,0.181242 0.005,0.09134 0.003,0.183368 0.006,0.274786 0.002,0.06523 0.0135,0.128315 0.0175,0.192935 0.004,0.06049 0.008,0.120807 0.0117,0.181242 0.006,0.08491 0,0.172131 0,0.257247 0,0.101601 -0.0161,0.202695 -0.0234,0.304019 -0.003,0.0462 0,0.09398 0,0.140317 0,0.04434 -0.003,0.09031 0,0.13447 0.002,0.03322 0.008,0.06658 0.0117,0.09939 0.002,0.02327 -0.002,0.04689 0,0.07016 7.9e-4,0.008 0.005,0.01541 0.006,0.02339 0.003,0.02686 -0.003,0.05491 0,0.08185 9.8e-4,0.0099 0.005,0.01934 0.006,0.02923 0.002,0.02066 -0.003,0.04375 0,0.06431 0.003,0.01782 0.008,0.03554 0.0117,0.05262 0.002,0.01147 -0.002,0.02361 0,0.03508 8.4e-4,0.0043 0.004,0.0076 0.006,0.01169 0.003,0.0088 -0.003,0.02046 0,0.02923 8.8e-4,0.0026 0.005,0.0032 0.006,0.0058 0.003,0.01107 0,0.02891 0,0.04093"
       id="path1688"
       sodipodi:nodetypes="cscccccccccccccccccccccccccccccccccccccccccccccccccccccccccccccccccccccccccccccccccccccscsccccccccccccc" /><path
       style="fill:#ffffff;fill-opacity:1;stroke-width:0.264583"
       d="m 116.14382,77.792073 c 0.0927,0.194776 0.18538,0.389553 0.27807,0.584329 0.0468,0.03118 0.1052,0.04965 0.14032,0.09355 0.0308,0.0385 0.0172,0.100875 0.0468,0.140316 0.0418,0.05578 0.1273,0.05767 0.18709,0.09354 0.55366,0.332196 1.18772,0.341401 1.82411,0.42095 0.21889,0.02736 0.43592,0.06618 0.65481,0.09354 0.3071,0.03839 0.6278,-0.03418 0.93545,0 0.0639,0.0071 0.1233,0.0388 0.18709,0.04677 0.18427,0.02303 0.37666,-0.02051 0.56126,0 1.14983,0.127759 2.34819,0.04677 3.50791,0.04677 h 3.41437 c 0.47567,0 0.97713,-0.04728 1.44994,0 0.0791,0.0079 0.15476,0.03886 0.23386,0.04677 0.15513,0.01551 0.31302,-0.01934 0.46772,0 0.0489,0.0061 0.0915,0.0398 0.14032,0.04677 0.18335,0.02619 0.37792,-0.02619 0.56126,0 0.0488,0.007 0.0912,0.04268 0.14032,0.04677 0.53461,0.04455 1.10062,0 1.63703,0 h 1.87088 c 0.28971,0 0.65211,-0.05667 0.93545,0 0.0216,0.0043 0.0259,0.0398 0.0468,0.04677 0.088,0.02932 0.61081,0.0014 0.70158,0.04677 0.0197,0.0099 0.0271,0.03691 0.0468,0.04677 0.0279,0.01394 0.0715,-0.02205 0.0936,0 0.011,0.01103 -0.011,0.03575 0,0.04677 0.022,0.02205 0.0715,-0.02205 0.0935,0 0.0509,0.05089 -0.083,0.0611 0.0468,0.09354 0.0605,0.01513 0.14299,-0.0441 0.18708,0 0.0234,0.02339 0.0234,0.07016 0.0468,0.09355 0.0264,0.02643 0.15224,0.0587 0.18709,0.09354 0.0738,0.07383 0.15678,0.322797 0.23386,0.374177 0.0259,0.0173 0.0715,-0.02205 0.0935,0 0.022,0.02205 -0.01,0.06396 0,0.09354 0.0484,0.145205 0.16833,0.196339 0.23386,0.327406 0.0251,0.05015 0.0757,0.133531 0.0935,0.187088 0.01,0.02958 -0.01,0.06396 0,0.09354 0.0252,0.07545 0.0684,0.0181 0.0935,0.09354 0.01,0.02958 -0.01,0.06396 0,0.09354 0.0212,0.0635 0.0741,0.109423 0.0935,0.187089 0.0179,0.07172 -0.0233,0.163862 0,0.233861 0.0862,0.258466 0.0468,0.563595 0.0468,0.841899 0,0.03748 0.0299,0.25077 0,0.280633 -0.011,0.01103 -0.0357,-0.01103 -0.0468,0 -0.0196,0.0196 -0.0326,0.11197 -0.0468,0.140316 -0.0258,0.05163 -0.22883,0.202777 -0.28063,0.233861 -0.18467,0.110801 -0.39794,0.134565 -0.60804,0.187089 -0.25331,0.06333 -0.49244,0.182677 -0.74835,0.233861 -1.07327,0.214654 0.0796,-0.02165 -0.46773,0.04677 -0.31323,0.03915 -0.17169,0.06498 -0.51449,0.09354 -0.2314,0.01928 -0.4708,-0.02564 -0.70158,0 -0.31262,0.03474 -0.62236,0.109008 -0.93545,0.140317 -0.23141,0.02314 -0.46982,-0.01931 -0.70158,0 -0.0945,0.0079 -0.18613,0.0389 -0.28063,0.04677 -0.89818,0.07485 -1.81409,-0.06913 -2.71279,0 -0.38871,0.0299 -0.78166,0.0583 -1.1693,0.09354 -0.15834,0.0144 -0.3097,0.07599 -0.46772,0.09355 -0.27463,0.03051 -0.57675,0.0439 -0.8419,0.140316 -0.0983,0.03574 -0.18235,0.104575 -0.28063,0.140317 -0.0747,0.02717 -0.15591,0.03118 -0.23387,0.04677 -0.0935,0.03118 -0.1886,0.05815 -0.28063,0.09354 -0.11082,0.04262 -0.21392,0.105398 -0.3274,0.140317 -0.0906,0.02789 -0.19067,0.01678 -0.28064,0.04677 -0.41884,0.139613 -1.23318,0.626818 -1.59025,0.888671 -0.11591,0.085 -0.21585,0.189992 -0.32741,0.280633 -0.56288,0.457341 -1.11871,0.881042 -1.44993,1.543481 -0.14286,0.285716 -0.27332,0.632851 -0.37418,0.935444 -0.0407,0.121967 -0.0458,0.254808 -0.0935,0.374177 -0.0467,0.116705 -0.12473,0.218271 -0.18709,0.327406 -0.0935,0.202679 -0.20347,0.398576 -0.28064,0.608036 -0.0328,0.08899 -0.0238,0.188632 -0.0468,0.280633 -0.10573,0.422918 -0.24408,0.871027 -0.28063,1.309622 -0.0168,0.201281 0.0168,0.406757 0,0.608039 -0.0266,0.319301 -0.0886,0.625382 -0.14032,0.935442 -0.0154,0.09227 0.009,0.187552 0,0.280633 -0.03,0.299857 -0.0981,0.593489 -0.14032,0.888672 -0.0195,0.136514 0.027,0.285964 0,0.420949 -0.0373,0.186627 -0.0565,0.376193 -0.0935,0.561266 -0.007,0.03418 -0.0399,0.05936 -0.0468,0.09354 -0.009,0.04587 0.0129,0.09535 0,0.140317 -0.0192,0.06704 -0.0744,0.120049 -0.0936,0.187089 -0.0408,0.142677 -0.0258,0.320919 -0.0468,0.467723 -0.0258,0.180649 -0.12472,0.342995 -0.18709,0.514493 -0.0714,0.196432 -0.0932,0.420169 -0.18708,0.608039 -0.0863,0.172662 -0.1934,0.340021 -0.28064,0.514493 -0.0531,0.106201 -0.0814,0.224313 -0.14031,0.327406 -0.0387,0.06768 -0.10165,0.119406 -0.14032,0.187089 -0.0791,0.138367 -0.0991,0.335733 -0.18709,0.46772 -0.0367,0.05504 -0.10362,0.08528 -0.14032,0.140316 -0.0982,0.147355 -0.14575,0.360299 -0.23386,0.514496 -0.0219,0.03829 -0.0691,0.05685 -0.0935,0.09354 -0.10086,0.151281 -0.19556,0.307033 -0.28064,0.467723 -0.0881,0.166489 -0.14961,0.345998 -0.23386,0.514497 -0.0503,0.10056 -0.13681,0.18008 -0.18709,0.28063 -0.12472,0.24945 0.0543,0.0354 -0.14031,0.32741 -0.0554,0.0831 -0.13418,0.14921 -0.18709,0.23386 -0.0523,0.0836 -0.0494,0.19244 -0.0935,0.28063 -0.0534,0.10672 -0.19771,0.21894 -0.23386,0.32741 -0.0263,0.0789 -0.0362,0.36358 -0.0936,0.42095 -0.0246,0.0247 -0.0756,0.0169 -0.0935,0.0468 -0.19714,0.0375 -0.0112,0.16276 -0.0468,0.23386 -0.01,0.0197 -0.0386,0.0263 -0.0468,0.0468 -0.0239,0.0597 -0.0362,0.12368 -0.0468,0.18709 -0.005,0.0308 0.0173,0.0676 0,0.0935 -0.0193,0.029 -0.0689,0.0221 -0.0935,0.0468 -0.0204,0.0204 -0.11774,0.23547 -0.14032,0.28063 -0.0287,0.0575 -0.0513,0.23835 -0.0935,0.28063 -0.0221,0.022 -0.10749,-0.0279 -0.0936,0 0.0833,0.16654 0.24184,0.22588 0.0468,0.42095 -0.011,0.011 -0.0357,-0.011 -0.0468,0 -0.0246,0.0247 -0.0274,0.0645 -0.0468,0.0936 -0.0483,0.0724 -0.12623,0.0631 -0.18709,0.0935 -0.0394,0.0197 -0.0541,0.0738 -0.0935,0.0935 -0.0393,0.0197 -0.15991,0.0196 -0.18709,0.0468 -0.011,0.011 0,0.0312 0,0.0468 -0.0156,0.0156 -0.0284,0.0345 -0.0468,0.0468 -0.0648,0.0432 -0.34536,0.0972 -0.42095,0.0468 -0.52337,-0.66832 -0.82914,-1.26657 -1.36801,-2.00512 -0.16934,0.69456 0.53317,1.92054 0.66363,2.47308 -0.53444,-0.58006 -0.89955,-1.10908 -1.33293,-1.65456 0.0436,-0.10405 0.001,-0.2222 -0.0204,-0.30986 -0.0468,-0.18709 0.0234,-0.0234 0,-0.14032 -0.0505,-0.2526 -0.12775,-0.46424 -0.18709,-0.70158 -0.0257,-0.10291 0.0208,-0.22319 0,-0.32741 -0.1593,-0.79651 -0.026,-1.621909 -0.0935,-2.432156 -0.0429,-0.514242 -0.14032,-1.026792 -0.14032,-1.543481 0,-0.572823 0.0197,0.138046 -0.0468,-0.327406 -0.0252,-0.176729 0,-0.382966 0,-0.561266 v -1.403165 c 0,-0.256564 -0.0318,-0.540464 0,-0.795126 0.0768,-0.614553 0.0468,-1.247381 0.0468,-1.870887 0,-0.684496 0.0285,-1.380665 -0.0468,-2.057974 -0.0451,-0.406088 -0.1537,-0.815277 -0.23386,-1.216078 -0.0342,-0.171111 -0.024,-0.398899 -0.0936,-0.561266 -0.0221,-0.05167 -0.0714,-0.08865 -0.0935,-0.140317 -0.0649,-0.151481 -0.0537,-0.395008 -0.0935,-0.514493 -0.0178,-0.05333 -0.0738,-0.08768 -0.0935,-0.140317 -0.0279,-0.07443 -0.0249,-0.157422 -0.0468,-0.233861 -0.0314,-0.10996 -0.1089,-0.217444 -0.14032,-0.327405 -0.0171,-0.05996 0.0151,-0.126588 0,-0.187088 -0.0169,-0.06764 -0.0799,-0.118719 -0.0935,-0.187089 -0.009,-0.04586 0,-0.09355 0,-0.140316 -0.0156,-0.06236 -0.0291,-0.12528 -0.0468,-0.187089 -0.0424,-0.1485 -0.12336,-0.315101 -0.14032,-0.467722 -0.0155,-0.139458 0.0275,-0.283358 0,-0.420949 -0.007,-0.03419 -0.0399,-0.05936 -0.0468,-0.09355 -0.0363,-0.181734 -0.0568,-0.377547 -0.0936,-0.561266 -0.0131,-0.06571 -0.0257,-0.446674 -0.0468,-0.467721 -0.011,-0.01103 -0.0357,0.01103 -0.0468,0 -0.0247,-0.02465 -0.0221,-0.06889 -0.0468,-0.09354 -0.0673,-0.06725 -0.86004,-0.364632 -1.02899,-0.420949 -0.0982,-0.03274 -0.22666,0.02519 -0.32741,0 -0.15718,-0.0393 -0.30399,-0.10757 -0.46772,-0.140317 -0.14987,-0.02997 -0.29053,-0.02834 -0.42095,-0.09354 -0.0503,-0.02513 -0.13297,0.01804 -0.18709,0 -0.0846,0.02819 -0.087,-0.07577 -0.14031,-0.09355 -0.0444,-0.01479 -0.10725,0.03307 -0.14032,0 -0.0234,-0.02339 -0.0234,-0.07016 -0.0468,-0.09354 -0.0221,-0.02205 -0.0715,0.02205 -0.0936,0 -0.0234,-0.02339 -0.0234,-0.07016 -0.0468,-0.09354 -0.0347,-0.03467 -0.12903,0.01128 -0.18709,-0.04677 -0.0582,-0.05817 -0.14148,-0.203067 -0.23386,-0.233861 -0.0421,-0.01403 -0.0982,0.01403 -0.14031,0 -0.30642,-0.10214 0.0719,0.02514 -0.0935,-0.140317 -0.0105,-0.01047 -0.16409,-0.02378 -0.18709,-0.04677 -0.0221,-0.02205 0.022,-0.07149 0,-0.09354 -0.011,-0.01102 -0.0358,0.01103 -0.0468,0 -0.0454,-0.04545 -0.0229,-0.127404 -0.0468,-0.187089 -0.0221,-0.0552 -0.11227,-0.40223 -0.0468,-0.467722 0.0453,-0.04526 0.0742,-0.01373 0.14031,-0.04677 0.46412,-0.613675 1.30149,-0.985426 1.79052,-1.305216 0.70217,-1.73644 1.04769,-2.188146 2.04461,-3.138092 0.0331,-0.03307 0.0985,0.02092 0.14032,0 0.0139,-0.007 -0.007,-0.03283 0,-0.04677 0.0328,-0.06559 0.12767,-0.142523 0.18709,-0.187088 0.0727,-0.05455 0.16957,-0.07604 0.23386,-0.140317 0.0674,-0.06736 0.098,-0.174456 0.18708,-0.233861 0.0427,-0.02848 0.11351,-0.03992 0.14032,-0.09354 0.007,-0.01394 -0.011,-0.03575 0,-0.04677 0.011,-0.01102 0.0357,0.01103 0.0468,0 0.0221,-0.02205 -0.022,-0.0715 0,-0.09354 0.011,-0.01103 0.0328,0.007 0.0468,0 0.11225,-0.05613 0.16838,-0.224506 0.28063,-0.280632 0.0279,-0.01395 0.0715,0.02205 0.0935,0 0.011,-0.01103 -0.0139,-0.0398 0,-0.04677 0.0279,-0.01394 0.0657,0.01395 0.0935,0 0.12472,-0.06236 -0.14032,-0.04677 0.0468,-0.04677 0.032,-0.05439 0.0814,-0.04338 0.12894,-0.07054 0.003,-0.0019 0.0244,-0.03404 0.0234,-0.03508 -0.003,-0.0028 -0.008,0 -0.0117,0"
       id="path1690"
       sodipodi:nodetypes="ccsccsssccsscsccccsscccccscsccccsccccccccsccccssssssccssssscscssssccccscccccccccccccsccscccccccccsccccccccccsccccscccccccccccscsscsccccccccccccscccccccssccccccscscccscsccccccccscsccssscccccc" /><g
       id="g215"
       transform="matrix(0.77923865,0,0,0.77923865,85.400251,22.079557)"
       inkscape:export-filename="Lion Cross Mane 1.png"
       inkscape:export-xdpi="1044.1703"
       inkscape:export-ydpi="1044.1703"><path
         id="path217"
         style="fill:#003366;fill-opacity:1;stroke-width:0.0846667"
         d="m 50.035136,62.342329 c -1.281107,-0.0046 -2.108524,0.136955 -3.357607,0.543796 -2.381168,0.77557 -4.161368,2.056043 -6.052714,4.354345 -0.355903,0.432487 -0.470479,0.412764 -0.321635,-0.05637 0.308374,-0.97194 1.320302,-2.247885 2.303838,-2.904665 0.46884,-0.31308 0.48563,-0.335727 0.222823,-0.288477 -1.531803,0.275391 -2.492179,0.752931 -3.46703,1.723567 -0.621636,0.618948 -0.747879,0.878756 -1.17314,1.62144 -0.168184,0.293722 -0.478664,1.046678 -0.578944,1.406575 -0.893872,0.597743 -2.156212,1.35421 -3.12351,2.06775 -1.272796,0.955738 -1.578556,1.385088 -2.390712,3.363576 -0.236665,0.576537 -0.519259,1.413922 -0.519259,1.431112 -0.987313,0.505424 -1.857829,0.974607 -2.620847,1.486149 -1.494431,1.007693 -3.108778,2.462379 -2.878139,2.592978 0.228287,0.129265 1.945782,0.257308 3.450451,0.257308 1.057536,0 1.465256,0.02756 1.442386,0.09616 -0.05316,0.159489 -1.714764,1.239937 -2.691127,1.707652 0,0 -0.826186,0.21858 -1.045812,0.417794 -0.200193,0.181588 -0.15916,0.854158 -0.15916,0.854158 0.104737,1.493906 0.978699,1.869047 3.363577,2.593641 0.822336,0.249848 1.137728,0.384126 1.05576,0.449626 -0.02194,0.01753 -0.220602,0.135081 -0.441006,0.261287 -0.220404,0.126204 -0.497982,0.352177 -0.617407,0.502017 l -0.217518,0.271898 -0.527217,-0.507985 c -0.290073,-0.2794 -0.679091,-0.583559 -0.864105,-0.676429 -0.185012,-0.09287 -0.547545,-0.286724 -0.805746,-0.430395 -0.812941,-0.452348 -0.747424,-0.484836 -1.350205,0.683724 -0.455724,0.883468 -0.527113,1.080028 -0.484775,1.340921 0.04312,0.265719 0.717348,1.325869 1.327658,2.088309 l 0.168444,0.211549 0.0093,-1.185077 0.0086,-1.18574 0.157833,0.338878 c 0.08662,0.186266 0.26235,0.567465 0.390605,0.846862 0.495437,1.079294 1.899436,3.204433 2.00276,3.031331 0.02238,-0.03749 0.181844,-0.411185 0.354131,-0.830284 0.407358,-0.990923 0.624208,-1.273961 1.02459,-1.338931 0.438292,-0.07112 0.782014,0.09943 1.178446,0.583586 0.337309,0.41195 0.338635,0.414635 0.296435,1.007348 -0.08595,1.207203 -0.01939,3.9828 0.120696,5.039396 0.164726,1.242513 0.264798,1.664751 0.779883,3.280018 0.384689,1.206353 0.607491,1.632123 2.159931,4.128203 0.702331,1.13676 2.402055,3.05664 2.67521,3.17192 -0.515088,-1.14737 -1.179021,-2.93272 -1.393974,-3.74821 0.519582,0.85552 1.900699,3.3066 2.527324,4.0904 1.075174,1.34486 2.508374,2.77428 4.289356,4.2761 0.165666,0.13968 0.514305,0.43978 0.773914,0.66714 0.594682,0.52081 1.077709,0.83141 2.249458,1.44636 1.016198,0.5411 2.133721,1.10795 3.324449,1.46096 -0.714072,-0.86507 -1.152492,-1.96721 -1.541197,-3.38082 -0.187334,-1.21508 -0.15298,-2.4441 0.290467,-4.59707 0.472013,-2.29166 0.937579,-3.64555 1.745452,-5.07918 0.543096,-0.96377 1.491162,-2.316005 1.533902,-2.187779 0.01569,0.04706 -0.03138,0.310945 -0.10478,0.586229 -0.405453,1.52064 0.178455,3.34319 0.774577,4.08312 0.07021,-0.56351 0.455952,-2.11566 0.897264,-2.98956 0.307639,-0.61558 1.384581,-2.23392 2.254763,-3.387441 0.351285,-0.465666 1.384425,-1.60847 2.295879,-2.539925 1.690033,-1.727115 2.513361,-2.70839 3.409998,-4.063879 0.568327,-0.859163 1.216195,-2.109639 1.503397,-2.902013 0.105895,-0.292154 0.20678,-0.516724 0.22415,-0.499364 0.05522,0.05522 -0.382672,2.264422 -0.64526,3.256144 -0.139104,0.525353 -0.344667,1.182371 -0.456921,1.460291 -0.11226,0.277918 -0.186912,0.505332 -0.165792,0.505332 0.28883,0 2.212859,-1.912738 2.720969,-2.705053 1.15442,-1.800134 1.937713,-4.660577 2.212984,-8.080674 0.245694,-3.052646 0.07192,-4.977958 -0.843547,-7.029556 -0.45581,-1.02149 -1.559162,-2.59055 -2.233542,-3.328428 -0.423388,-0.463254 -0.425135,-0.467742 -0.248687,-0.604807 0.09769,-0.07588 0.374139,-0.289888 0.614091,-0.476153 0.85095,-0.660561 1.665985,-1.877531 2.00674,-2.994193 0.124883,-0.409262 0.184504,-0.738623 0.141254,-0.781873 -0.04325,-0.04325 -0.340932,-0.01509 -0.706272,0.06764 -1.018717,0.23069 -2.543144,0.198455 -3.637463,-0.07693 C 62.164779,67.016603 61.522347,66.8258 61.22672,66.715243 l -0.537164,-0.200939 0.497374,-0.307046 c 0.496244,-0.306297 1.250981,-1.037763 1.632714,-1.58165 l 0.202266,-0.287151 -0.290467,0.05173 c -1.052176,0.186696 -1.9519,0.244658 -3.169269,0.204918 l -1.35551,-0.04443 -0.899916,-0.43172 c -2.468378,-1.184692 -4.404255,-1.695571 -6.692668,-1.766011 -0.204094,-0.0063 -0.395928,-0.01 -0.578944,-0.01061 z m -10.996612,4.478358 c 0.04505,2.873101 0.08142,3.632065 0.07958,6.072608 l -0.0013,1.714283 h 13.32764 c 10.586127,0 13.253995,-0.0297 13.388652,-0.0378 0.327887,0.48816 0.999098,1.825583 1.102181,2.551862 l -3.276038,0.05703 C 62.571596,77.13937 55.15959,77.317212 49.46683,77.317272 H 39.116777 v 8.5303 c -9e-5,10.0514 -0.124689,18.255798 -0.123349,19.105808 -0.299018,-0.42444 -0.3764,-0.53511 -0.931085,-1.4152 -0.189389,-0.38253 -0.498477,-0.85607 -0.823235,-1.23568 -0.0051,1.2519 0.424742,2.24436 0.851321,3.28892 -0.280249,-0.27716 -1.374396,-1.83648 -1.536749,-2.09296 -7.8e-4,-0.16607 -0.06171,-4.463163 -0.06171,-13.13672 V 77.319262 l -3.443156,-0.02255 c -2.433883,-0.01563 -2.491779,-0.0045 -3.601874,-0.02602 0.756047,-0.538556 1.818997,-1.094876 2.463588,-1.445778 0.07367,-0.486431 0.208907,-0.876944 0.409841,-1.298243 l 2.007012,0.05438 2.164573,0.05372 V 72.35547 l 0.02122,-2.162583 c 0.44831,-0.462168 0.713276,-0.660973 1.271289,-0.992759 0.42549,-0.839517 0.821556,-1.806479 1.254061,-2.379434 z M 25.898559,81.680903 c -0.0698,-0.0061 -0.07433,0.101295 -0.07361,0.480132 0.0016,0.860365 0.317143,1.831813 0.728819,2.243489 0.127181,0.127177 0.245654,0.190134 0.262614,0.139265 0.01696,-0.05087 0.180324,-0.396471 0.10677,-0.740093 -0.07356,-0.343624 -0.181712,-0.788645 -0.230782,-1.043823 -0.107991,-0.561595 -0.474825,-0.919835 -0.700303,-1.040507 -0.03996,-0.02139 -0.07025,-0.03642 -0.09351,-0.03846 z"
         sodipodi:nodetypes="csssscssccsccssccscssscccsssscccccsssssssscccscscccssssccsssscsssssssssssssccccccccccccccscccccccccccsccscccccccccssscsssss" /><path
         style="fill:#e0115f;fill-opacity:1;stroke:#f89ebf;stroke-width:0.320826;stroke-linecap:round;stroke-linejoin:round;stroke-dasharray:none;stroke-opacity:1;paint-order:stroke markers fill"
         d="M 37.619241,98.535037 C 37.477925,94.906221 37.401904,89.501075 37.400655,82.993283 l -0.0014,-7.0485 h -1.090991 c -1.61761,0 -6.481658,-0.167986 -7.163962,-0.247416 l -0.592666,-0.069 0.592666,-0.01278 c 0.325967,-0.007 2.230967,-0.06833 4.233334,-0.136233 2.002366,-0.0679 3.73933,-0.12431 3.859919,-0.125352 l 0.219254,-0.0019 0.05747,-2.942167 c 0.07185,-3.678301 0.146458,-5.381849 0.231918,-5.295286 0.07388,0.07484 0.245774,4.916669 0.245774,6.923047 V 75.3287 l 8.8265,0.0055 c 4.854575,0.003 9.988551,0.04523 11.408834,0.09383 1.420283,0.04859 3.420533,0.117029 4.445,0.152079 2.341434,0.08011 1.877312,0.135511 -2.413,0.288046 -1.970371,0.07005 -6.54586,0.111522 -12.625235,0.114425 l -9.534902,0.0045 -0.04744,9.355667 c -0.04503,8.87956 -0.162751,14.437394 -0.309013,14.589254 -0.03651,0.03791 -0.09207,-0.590744 -0.123468,-1.397 z"
         id="path221" /></g></g></svg>
